<mxfile host="app.diagrams.net" modified="2021-04-01T13:31:33.212Z" agent="5.0 (Windows NT 10.0; Win64; x64) AppleWebKit/537.36 (KHTML, like Gecko) Chrome/89.0.4389.90 Safari/537.36" etag="6FolG4R-tQKjY4bM_HsM" version="14.5.3" type="github">
  <diagram id="kuWpDaNDOsLLEyVlvdH4" name="第 1 页">
    <mxGraphModel dx="1221" dy="654" grid="1" gridSize="10" guides="1" tooltips="1" connect="1" arrows="1" fold="1" page="1" pageScale="1" pageWidth="1169" pageHeight="827" math="0" shadow="0">
      <root>
        <mxCell id="0" />
        <mxCell id="1" parent="0" />
        <mxCell id="H106TfcsuPJsD2gUWJnb-3" value="System Architecture: Kyotta OCP (Open Computing Platform) / Data Stream / Machine Learning / Streaming Process" style="fillColor=#4DA1F5;strokeColor=none;shadow=1;gradientColor=none;fontSize=14;align=left;spacingLeft=50;fontColor=#ffffff;fontStyle=1;fontFamily=Open Sans;fontSource=https%3A%2F%2Ffonts.googleapis.com%2Fcss%3Ffamily%3DOpen%2BSans;" parent="1" vertex="1">
          <mxGeometry x="5" width="1160" height="40" as="geometry" />
        </mxCell>
        <mxCell id="H106TfcsuPJsD2gUWJnb-6" value="" style="group;fontFamily=Open Sans;fontSource=https%3A%2F%2Ffonts.googleapis.com%2Fcss%3Ffamily%3DOpen%2BSans;" parent="1" vertex="1" connectable="0">
          <mxGeometry x="285" y="160" width="600" height="620" as="geometry" />
        </mxCell>
        <mxCell id="H106TfcsuPJsD2gUWJnb-1" value="&lt;b&gt;Kyotta &lt;/b&gt;Open Computing Platform (OCP)" style="fillColor=#F6F6F6;strokeColor=none;shadow=0;gradientColor=none;fontSize=14;align=left;spacing=10;fontColor=#717171;9E9E9E;verticalAlign=top;spacingTop=-4;fontStyle=0;spacingLeft=40;html=1;fontFamily=Open Sans;fontSource=https%3A%2F%2Ffonts.googleapis.com%2Fcss%3Ffamily%3DOpen%2BSans;" parent="H106TfcsuPJsD2gUWJnb-6" vertex="1">
          <mxGeometry width="600" height="620" as="geometry" />
        </mxCell>
        <mxCell id="H106TfcsuPJsD2gUWJnb-5" value="" style="shape=image;imageAspect=0;aspect=fixed;verticalLabelPosition=bottom;verticalAlign=top;image=data:image/png,iVBORw0KGgoAAAANSUhEUgAAAYoAAAGeCAYAAAH9PnYLAAAACXBIWXMAAAsSAAALEgHS3X78AAAgAElEQVR4nO29D5gkVXkvXAOLgBF2d9TQ5tLubPQmJnI/enNNriC6s4HrcCckzKIRA9GdaYgKEZiNaURHYAcYwW2VWSQQjczOqBDwUXY2cvs6BmRGUXMT89FzHzTxeSC7w/iFzpXM7qAB5c/O97zNe5rTp8+pOqfqVNWp6vf3PL3b011ddarOec/7/329tbW1RF43fP3U4+K8Tg/8YxsTc6Vhz/P2stOODdR7eiu1DZ7nHcKPVleqgxtsXtbqjUzMlTpOhjehvMhKdbDHxrXX2TjJxFxp3vO8rZKvlnortSG/3+JN7lypDk5GGUPkGZHNAkPQbIiIMjtHhf2hF3ATYWBy0yJCLy2dm+it1NqWiy16kMEKjfjgCi/mG2AIdSMmS0p2E6rfA02FGY8XlUaCBmByE+y7ibnS4TBjML6RiblSXfJZv+ZvdWZy/cRcyZhZhllap0o+C7wRuAlx5vDpr5ccDhKA0TLTmpGgbXFsoL4r6BxwE7h0Wi/P80qqZWm6tYehkZ0hfqPCARzw/qgn0r6R3kqtuXzGBuqRRAkFzpV9PDFX8hVveJjMyIPc+xHhgn3iEomylXLYp3ug0dLqrdQOei8OctrzvEXuqwP8caqbsHRzUgQKjb2VGhDytexvkTfwRKk7UBNC1j2nzo30C8vKV+SQbbN+xwYdY+1GPMX2G1Z+mpgrwZZbFz7zVQV0zhtaaISbU92Mz8C24ey2fvfiQ/r4zEp1cDiKWhBJ1oJBcK/m9hzwdOclHy94nrcDzhO70Bi0jOD7D5310aEwT3SlOtgSb8SbMbkx7aXFboY9+ZXqYOvp6hItO05jQxjhrTA6MNLZw65hvAneHNR62qqNxGT380LQyIjGMW3gZuKQwc+MmafRjSBH1xHwlthAVLYuk+vqwHjXGhuogyC3MeCwTZrGCWtWmEh2rTA0w8+GTUYbiY/goIJmRzy+CZs34SVh+/UUNMHfiA1zUSzW+CCwm7Bq70rKP8JeG//8f/Zlxj+SBqwY6FxAU9YqFMta09JYnupY0/Bb2eey4/zOJTsP+43OsetUB6oGrhpk0LHwPZ53vLE8tcv0OuKD4P+G30e2xnMDZBfoQ2PEtsbylEz/aPutyXW4a3Q8OFs0shFOjjd0AC4CN8FusFAs7+Ju9lrdpWyCUDMiGwg/MxJ6gKW0i19K4tIwvWbH0vJ7OpLvmstFdeGwSyXo2mwpiUsKj1mC9+tUO5HfxUyWBjsH95txzZ1ulVnqhcEfbCxP9XHnb74PtbQkT2VjY3nqML4PJHJQ0GQPg3+AjeWpDbItW1i+29h3VnyIcBN+3/NLA48HBW1adozG5bZw52k9sEi7Fp5QVH93Cd8b0Y7G9R6WLNdou5Y4QPbUuQssRBw0YLMnmTH+ZuA9CY2uoXUjt95Wu+SOvfc3HSu3f25uj/fitB2B/+Fz2Uu8F/4Y/P0ovPj37Dv+OO74fYVi+VF2PDtvoVh+jr8OfAfj5a/bUkx+7Tf/dA3+r1w1c+Skk0fW4AV/i/+Ln/GfBx0v+y332sQd85zf9flzsc+bMzL5mfue/NEPbm0Szxe+NN8jELEvwZ5+2huU3/EzwqNy1cyj7M+J6y6Yxbfsf0+xCS0UiuXP43mb2y7ym+ZYmzcyetk5r5IwKLb7yOKwvNs++/Un4CT3fvnKnt8+7UrZjvGY53k34+sZfjer3rTj9eygi0bO2o6D2sKOEbZXxmi3NpanLlaNKRe7ViyRQYJJaPPYQP2gbdMPj7RjGbfxbomwsHITfsY4HZtu1JmJzAD97L0YEhuIqMbrOOMXt5n4P6LcSOjlFGRxlyylpoc21MUCEHu4n5dA3KKtLXZVESC2wHtlPf9g5tCeKuPlpDsLsgHZDMfgEZt4PjFXOij8rXXzYbxbkW/C58ltYm8m5krT7Fj+pTqn6Y3EHZDcvIGxgTrEjewQByfzp4dB4Ez0VmrzvZXadIhzb8aBKrdV5ksPSz8MOssJdpIdPgM5KBsECH3CR4viMdw51kycoyLCBFiKA94k/0U7xgbqpYBDQi+pUMGVkkBiraicuGISdcL42g7gua+MUHUuGoXXyGB8ExBDslIdlMbRQnIXxpkEAuPgHww4bpsiyKwNYW7CsyXMsRDAqKkTYW+iCdMYRFXEgupGdG8ikLD9JFAu9nCaDT5ovctyObhwvS06gxahuzv57uE6kZxcoJhM2mU3UkeJ2AhaYseHzvpoi6FB9PRKdbBl3n/x6X80aLfRGtiLS6uupBEVtG5ibKC+gZ34Q2fBwD96bfCv5L83+I39eMOQjGojH/mpA5DVeHeXDkxjDbVuBI8DWelQgDVE9h3kjXTkV/khlKEgYpbmDJNsbUW2hVKK8Ekvhfyt8gbCbrGxJgCL8IsvdCK2ENIawPMp+06kJZs34KVh2u+t1Fr5f7bsUbnwT+TCo5qLm9COI1RE7gBTOtUkTEh2PnQobg0bW6iMIdSJ12gsT5VMHoDEscgQGFrhF+hlxXgmG5xOYCQeD2pqYIKw3/kj0wR/crzAdgxiaYvG4eOZhHC5yD47W3GDC5y5HkId2OfNG8GbAqf7ubaXUzP6BkIMdAcfJa5JFeyIny/whM0InT8ej5tpLE8N879tBj6GiVyOEhUtO4aFO3DYirbcA+wc3I0Mi2OwEiso2314iNGXSC8d2iH7njtfx7Vx8Iv8OGyE1wVCEr22iw0Wv1sQH44M3PenWtmdNEJUd0mWSSSIsbXsvfFy4ohOGmJqGq3sc52OAau4N0mxruAoPi5v8pb7TmfvC8XyGYVi+ZCniAn0uFg+BvYdF1PIx/W13rN4PklMIOPqZ3C/28TGwc4jxhZ6Yuwf9/4MPg5v+x9+oiMeT/Z6b3nP0/i7z3Nxe5v4Y//8w9OPwv+f+OS+VXZuYQzz3G/nVbGH8Lpj7/0H25YTEA6L7WssTz3kt1rgqe246JanfbbZR9jTbyxPtSwjEAf43HMv/Cd4/8reV3wzaJtuLE+1RSTAxsLLYeXhM/uOYoM/6+xdHbIJHtznKTBzx+Uv97k+iwFsE/ogBvCYY47+/7hBiiJIc+DsN2JsYK5iALEKE1/ACDKclQ88C4g9qCAqNOxzW1glD4PYr3HeQ+EKnKOMMMbRqJGESZTE04ETkxElld9mPQIv5YlJbZuyEfNkeyK8uBLqNZHKZEStcWroE11aqQ4aM3YMtp4Vg0vjRKLb1MRcSWr3MIVPaL2VvIC0kBhlaFLDgiqk2QfasUw6W2OcZfyCkMhkGJSANZqIoH09DF8SFs2esYF6R/ZaXEjKmiMNf+JhsiIhtFBjItaiCghQDRpj1BLZ+mLnGZrbEwQO9ZvwE58quaJmbg1xb2FOaOAQHDsx1wzTDs3cMf9hCMLgDH+nvRpNS/SZwhplqOp5mqTpGDyYVfbQWQ6H6TWjXD+uCbHCM5iYKRM3TXUCnYP41e+Xi6ILPnZZZ7y2e0EwWKEMnZgznVhnk+OCYOGBqbIMjceii1ikKR8KUcZmCytTepzJzVt4UOvDhqeGRWTKkFXpZvDJx1BGegr8AAY3rtObwA9xbSu2KSPWyWDQNbpJkoohxj5UzxBPUrV8Yq40yrx2lqCVJqWLWHiGAiMr1cEwSaMtgLJn8+a9iFTjHGV4IUzZUczTmCDul2Patq356Qa9lVqTUvwyJ/3g5GR4EXwLGmaNYdPC7p4gnfk9NJUkqHNd25NhTQOHmwgzIZLfbF6pDh6MyHTHvRcf6KwXPCHbeJ73knOpefw0truRdYpRpqeHRSy2KYNJ2bhSHWwxaBtSD//QdZO1fca7Z6U6OGpyriiwPhm64iiuWmnzpbDgtiapE0uRyhzo8OK2LvawRnST100QVxvVyP5tE3CT4LvPB1XC9wHbOmECdjhtmxIBugEOeCaO8yPl9fBMGletEaMP6u7KgVHBdCastn4IKxHZRASqSCxSJPG4qbhME37IwkR4aQexJTAxUnOK5kRsWakOGmX9R4VT4Z2WJmdG5eNgGrffj9OMKMxN/ewg+FBDU1JyYYzOR6FHRW+lxpvrIxsr40TXUEYWkJvq+HmA9W2qUCwPY7sOnWOtJJLqQiMRvOXcMilRYevY1mRYbG60JPZN0Tl/mOurMncVGJfUMFiFZjSm140L2jwjzlXMt2ERsym5Yw5z0RqLUJ9E85ytvmaSY1rGSq6kgS9l+E04nkM2ft4tLS27BinoTkyG7PxczzWP/9zn91rpBpnYptIA8BeZzSqIUmQFBlgrtqAHIKzsJb7Blw2E2Y7Z+IzKthiirfqDMAjl1iEMXOnvNqzIolWJIixl6Iwp6NpekjyDr25kC7IJlTykJZzQwO5zQZOhWvV+gkTQefjvU+cZ3HlVlKTTwq/tN0K3yCYV4t/gG/c71ySXTtBitGHqu+hsk+Lv0uYZLYkoar2voMo+OEGx9EFRXY+NS3dLS20yeH4QcttbExj8lsbylK/JO0gZRfGZHRtntpK0KHaikyEyZM1JeFBW9QvRcpsGTYQtKPQI/h5FKtgoNhxFauk4xmQyxsPeDzLGURMxMgnzSBhwFCPjE0O6NfPE30HOOVltHQJZbR1Cqwgvz/3Hr3n3f/zrEyvHfPavvvEy/vOPX3/h0kevvlOmhO00CbWHc1Y+PPPTL9618Iriya/y/uF7u7Vk+oG3l56Z+0b9OHGLEETZjs/ZPUDVsS/eufA6oSF06/6g6hk0A/U5V0exYIXusbOxPDXpNyZ2ranpBw7CM23wffx//Y0fXFt96um2/Wz8mnd3iIwfvfpOseE5DPBm2U2JD5f/HUwEG9jtn5urX/K+gTbDH38+mARWLS3IUCf7XPUbaAcL311VOe8t3LGHxHNx4qm0Sq3seRSK5VM8xUKBz/7syr1HxGfb2qZYf1zZwMUeuIVimc86Mi0vwVchbP4/fv09pnnbC0LZUnbe82UHs+Pec+HWx2Tf3VS99zvc36peLA2f+3mU+5Np8Bfjd5vEcQI+vXukVcqv9aFO5UTZ66STR84P+9usvE46eWTU4HmcEfW+ciVNQYxvlLSzNJHJiZCFiqZZCccGMhOi4xfYJjRwUZnbKTwnLCbmSmA5vcLv51x9Qu3sVVeKQvJwciI0kiab4CZh2q9TqQouTYhTW5NhiTw+f854EryXwjtbaWFpwhmKCFvxxlalzrSpI3WKiFIosrdSs+YQwgltS+pMEqkaApEKwkwC04JtZzsdCtnaOzJSm4iIJSDiXLU7sINeokhlImwku/RWarN2RiPF+jiqRPshcR6BRRptQDcvfOdKdXDS9Hqgl6jK98WBNJh1LJUyedh4eDh5xhMYFolORNzJkS5qzLpIjEegthwEnXJyMkfNxixPgpcwRQSaLDSP2Yo1O5owmQCNmiOJlszmkVSFA52LLGlOhPep+z/e/N+gXJ7pTS6MDdQTa7XgORbZYXTjOpPA15o1xNakqzDEPhFoytbBAc3jPFXWjnDdyGJykpORBEX4+hMQ201OGNRkBMsiWRGTk5oMJ7amsYG6bS3Zam2qJCYjd9F/cT00ixYBKXJVVkK3vFxAZWgVYrUI5GYiTPpPYKXmHtMSe3H2uLAyERA5EaY9GiKw8X4QQFHjStiJJbZl2D82UB9Cc3pPGgXDRNjiEZsi2PAjVw+Ah2r4k3OZjjExV+rDSdSqIRvXpNlk1oHNpxRge+9mS+MwTcs6gFtOKY6CvrqwKjVF8SGPDdStFMUK23IBV7rWb+OgisgTgS0UGDp8yLaZW8yhlfvSogobFNG2ioSJ0QK0RfDciV89NcbauErYmAhRQuloMKLxgH2bkhicx+g4H+wIMrugLmINcfU96thrgx4Oxjf5HWfKzKNuMbLq/DysmmXiMnFIY5UCJoP/jWhd3WzKzFEKihNavhNdxGZrUoWj+E0G1w1snnUDw3rjoSSqLOVM2Gg85XeC7SvVQSkJI4NW8YZIDack1woVLR4EmxMd90SYuDNjzwKyLf9naiK8CGEuGPlxMKz/GM0XHdsa9gMPawloweZEJOKPCBu+ODZQ72OTEFJclLpfoQEiPsSRMOOKA4k5hqLGkvJNBg2gtOxC1Pen7v/4vCsTYsMMPq4bWh81lhS2mqAgA93tYqU6OAzj6a3U+O5eVrasMEilKSGIpivVQW3zd4CEJQVMCPomwFchjSTprdRaXevDNCbMHI+QYD2uxkCTNT4Uo0ngsNUv03SlOtjiO/xi0nzAVrczW67SzYZxSQxbuQewigbEOguXiSBuBsY9ycCnbyFF+eV2W80sskIRlhpswN68CyYBXJ8RM4raKA07O+oC0rc2eAlr5ta2pojR2JBM0gN8AycgSnNCmdU0yIAnohVQkNRkWI3iwF6pui3V9q9UB1srVTfJPQgsWC2qFi1IeKJkmI0eqQy9lRqIm8x9OilLndWMutCCX39UL2SrNUlLzlioxCpFMDGTDRR5R4dvQkcfMEXQJFjAftv9XHnE1ag2abSstbpVbBg0dKCWzoPnXgUTie37sx7pFyT2xXE99j7guntCXqJN045jErwYG9QmImlw0X2loMmXpWQlnUvth9hiX+OkDH4CQgQTR4GtILgOxGrisEwZI3i+7VxKVpKTYC0ITobYbU0WJ2MvPnxT5cyT1Tx3aVvykjL6pe3EDxuG6SWYRJ+Y9RUnY39S1+PQYfJIo/pMEFKpYJaWeMvgYuPyVPwRSVFHVibBc6GmX0zuySUIPJB9EWfUSRS4VFwxqE6GFvwEA41JSLx9P4OrdV/rhlmcgcVMkEGrKM/Ihx4HuqLlDXrcpNmjrpQXyn37foQ4CTMQTpPaaCTI/UTwfMHl4lq5ngiohJmVymbUFs0RUEs0R0AT4QhoIhyB9YngWygHHLdB1Yo4Dug0QmfjMTlW814Dz9vq1Gjx3rXiTqGbLetwC11/TZrNyqB5D9a70ttCHOJrhzuRb3mvwCbTxWDY+RcCnEte54SNBPXBTgpa4iuS1LUhHoDOudkAZhrLU1a0Xb/xqiZc1spfZ9xCh8iwTUm2uaTQ7eDCMzvAP8Aoi4Hrh2pUvcxTTKLw2WZFmSKW3wE1PmQUWE99IviVKDaZ9SQ3b4sisSu7sk+raqziuCTjkW3Nre9Ubf5doYhVZqIuFMvDsG8XimXRbL2/sTylzHNQPUwdSnKh07wTekRjeYr3BezFh7ee+76Hn4Qkxd6kkCpFBElTJitV1fw7YKvb0liesuqRC1gg1xaK5Q5m3tZkPE4YSBPbkWGfq3FTWvpKoVie9pHGHob924WtaZ0piYdhbAIgCX2XimmxOkiooatCKneqfl8olkXFsE0a46Qm45RhxfVavnZZI3Gf37HnuNNLamtCmdxIq8UtI8xK7UiAgclpLE+1STM4kSCxaesuikV4ruoY1aQIxzRzwNfpzGBUhU7HdhMGQUoXhwOqSbWgWbcpf4I47rcttiEpZh2qBaYG2iaC14y5a25BXjDrJ/4aoPngOT3CbzF0KKkqiklqa1KRaEtqUpkKojJS2OJQoToX+Y5O2Ewf8hB2jnmTsaiUVNTmGdoaW6WtR1jJJvX8NV3+s0lk0KoXww7h+zBohZRyfOgQN6Y2oSJvwQM7VV/gKg2iiCCbkDZgG+S2IVBSW7nnssWS2kQIZLrR51BtMAlEhSDlTccmZDieHl1bWZpbE0+mRvkKMhOHC0qZiEKx3LEwVHpY4hQhmp9dfIBRgUolr88soWOqed84GXsay1OteN3EJkJm//exhu5iNhmXjHt4DyUV/wC9QShruioYNHu4Y64oFMvQkWwJGHdStqYw28g2P4klJUoqqcYk3KPSw4cK3jBKUnuZm1h3IqIyLmM3KDNBRLyuVQSMSVz9Qfc3zSgLfC8UcukIKMDMEdBEOAKaCEew7o699zdLKlw0clYzMRz+XvO8/9bjef+bfcY+f/a5Fx6/5H0DIHY96nne6+DjxvLUxex73VuC84rX5TF5y32nn3DCcRXZ77wXmdsZnue9CT/e11ieWsLPW3I5aNmye4P37Pzi/fF/F4plELVf4Xne6/nzy7R37nmAhXe78F1bbt/EdRdsZc/R4+6156STR9ZOP+0N3r1fvrLnrLN3rT3yg8dbqvk1H3tX49L3n/2ad767euSh7/xTj0xl9xSqvB/442ViKDyUsWvu6jBZK64D3rpJmYgMn7F78zhLKH9+zjK6hr853/O8u1XX1glY8zvPtVeff8v49fdczl/3nME3rXkwEdv/8BNrd+y9/yC8BykKXp+f+tt97G/+f/4Y/jvV3/CC8/Ofz3zxwe+xc330Y196XjxeNga81nOy88vGxT6Ha4tjY+eF1817vna63z2edPLI58Xn4Hdd/OwM1Zj431WumjnCjmnxiI9efeemj19/YctGzm0DzVXlB/QraOPKj3zhzVdded6/T1x3wewd0w8cbfDTVtA09/JN6/3u9/5ZGX5z7dXnL95Uvfc7kp+1iruzrdcQX+PPw4/X46jwC1+ab/m425j17Z+dayv3yQ5ipO0D4/7RD9f/5eXfeuiHAx7uk4Y/38m9fHnTKW98rfeeC7c+Bi/xu0veN9AMTL71ttolhtcPws+F7zuq9ouLuzUR8NCXf/ykN/mZ++73uYgqgFe7Q/vF77/tCPw/94368fCC94pVKcNhvN4k91ry+8GJJ77cq9604/Xwkn1/VeW8t9xw41duEz5uOayQEXvc35/n/nxGds7G8tRr+PM0lqcCG5G0mTguGj7zhZt233vm6GXnSA9uLE8dFTXK7r7a93s+9pF3XvrBSwdvZ58ZhOhslFx/J2OkYQKVRy8/57s3Ve/lP3qr53nfFq7xDPf/RYVi+SKPY+B+Aoz2s1IxyqDXSSePjIb9bVZewHSTeh5ka0oZ2ORqWOK/H49SeY0QHt1SjiMVYJXuSYNiOyNBrSmwLy/P/w/zbTcI0UGcwgKwHPB8hHps0n6UAZWmdLGNCMYMRBQhEKLUmgozYwP1Nl8yNMqLo8Eqh/GV6iCJZT4gotCAzQ4wHNq4g0F7IJtIva6hiyCikCCOTjw8xAqprtSPz0rxt7hBijZiYq5kXCQiJNpi4V1qqMCNZWmlOhipflCW0fWcwqJ+oIM2HcK1DiMKdJ2i3rVEkUYfPV5s4ntsZwSLfDvqPKOrxKcERSQZWr0KsZ58lggCcCrjbHnXPbqGU6TUYbUFgUskMZYF9J1AhZKDOiIQOgY9dA724UtpdcsrceSeKLAPf5gug1bBiKK3UrPR95N8DTEi1+JT2txBAVOC2L5SHZxNbHSE/BKFRYJYjaGdnh/2r1QHbZSfIoRE7ojCsuNtv412hiyTgpPZRcTuWcbgxCF8bZIcsoolMKfHBupdHSuVK50CJz5yvVGEb+EQU4BO0VupieEi1pvnTcyVICr3Cpvn9GsUm0fkhlMgh7C1iDfGZLplBGGNM0zMleIOIARsEsTRzWMD9Y4uAnlBnsQnWyLTSNRajAGwojinbEQ4MDHX9OMtjg3Uc+fQy4X4ZFOpHhuob4hjwfm1STcBZuolHU0bhFwRR+aJwuYigYUbo9c7cnqpoyZmHjvHBuq+RXuzgDwU3bK1a7I64L4FWiIgdLeBibnS4QwQBODmjIzTFxQ6jhgbqDvnGwiI4N2D5lPfcukTc6VRbNORmK8FCWNL0NhcBRGFgxAsSpHMoSjOdIg0E3Olgwp/hS08PDFX2jM2UI+L88YGp4gCUzKHUvboTsbYWMkXE3Ml1hdos5i77b1UIGEIA/aC0mNZQOCkrCgCT2jcdW3jChjz2EA9sPqYS3BK0eaiR7esVAe1WK8lGXaBn7i45GKVBQo5w6RK3IgpR3xBtlhBf4lB1JJey1U4wyl6KzWeOzxs0P3ARmySuOBmYnCIjYsfgLwP4o2MKwgw6iKkia0C8cNz7AOTtGc/IxGuNa1xn07AGU4hyzHQjde3sbOLu7htbhHFT4FiU9Rwc1M0q41Y1j22jw3UnY/4ddoka5CMo9Us2w+Yd8Fjc9RzchiJ8uOUrDiHcGOYt+V4dCGvRQdOEEVvpaZ0aukQBkZ1RiWMtgnD2J4OkScEZoJKYWrCJpGaYAcSx6JfW1NdIOdxGq5wCl/Lhy5hRN3RRJEJPdBRCGPclhyNRBqJ40QE6Bc3WxhDnGZgK3BCp9AVkwx0jEjWGol+YRySblHkaEPchdoMEMXA4XRF9UwRhWeYLB/RvNhR9FhT+U7Ek+tIOEVowohr07CB1IkCs9FM8yCMCnRFyTmQcI1ZWTZeWpOc1VgjIgofoH8ijFUiVGnHsNxDRhwuxUvF5HSLDUQUPkDLU+gQgyi1h0KGnTsdz5NywTdtEFH4IKT4JCKJxP9RDCvnrSfO5y7HGNcUFdtcLZCQOUU7ANYLAegCFx9cuz+p/OWwoRMJ5XX7gjhFAGIoI7lzpTqY+QywIIAewWKVIp7HZhUULRBRBMBSbzcZnKmUjbL+Lo3yM6sYMRtox0d/jBcmApXbiDqKryXBSYgoNJBA0eHEyk/GVFygoz8ec1KGXWCSZ95h6kZd6uYw5/cDEYUGeis1qf0/JiysVAetxvcnaBJtFQfgfRRhFllvpabyjksNFxbzOva7mP7L4GqSURow1kMS7oLUBL/4BcddqLBsjWe+caU6KHr2I4Wyu8wlPBdL3PRWanHnDocC84eklNvQhEAQHeMIyS10xSNrxEFEEQLY6SdNB1Sbgu6CQ0w3CSokYUSKPTNUzEcshdLHBueLoSUgUkG9p2HJLuhKNKqMIPxk+w6FPAghnrFK59AJ8Xe++5GTRAELUuYAwy5AsyHEK6hsMRlkfYqpQEAUdIRYa+7KRrtxhI1HJlL5nctZLzYPpzkFPuBYSjGiPDzvahCdbEc1sXDp7sgWwmw6TN02Rbs04Lz4pNi9Z/xKwnC/7cfQi1RDGgwhy+MwVmgNiMIGd2zzb8h0sKwQhJelAst5qFEaABkxhNVrtOss2dLZRAVcmK9MiOuuo5EAACAASURBVE0MmSmwjDvNFgeGYhPgxOrBV4sgwP+Biyqsoq8lbvoVjDCF5Fwsl3t/1tqFZaqWLIpLPS5EeUaATHnegP2ureg3Bk48myHlImc6iP0+MtfUMpMFltHkOJyGRzkEOkQHVUqrJczonAaDMG1CPF+/jQjeNJCXTkZpcY5FNBFDeZ15VOz7NQsgxwIdhTZqtqMMUTIgXUPeuqOmFoLhAjQJIg6n5PhKddDZkjWmyBVR8MhaIn9UaBJEHOEquUvoyi1RMHQB91jVkd3jIIg8iUw8ck8UPNJIu4wTCXqtRWj3D8kiuoooRGRVxDLxDvdWapMaKbC62LxSHcxtU3mGriYKHrZ9BTHAOInIUu679SxF10FE4QMUt2ZTIpRIgZARwzc6ihl0E4goQkJoylgKQTiQxzFrO+EmgrjUFaKRDogocgQD7rAEhCzmQhBeBPXRzgF6KzU/jz7UkerPs7XINogoMgzB9wCLf3SlOuh0/nMWQOITgSAgM/kUBEJSIKIgEAQQURAIArpS0S4Uy1JrTWN5KpcBbmFQKJZlBQ3GG8tTkULEC8VyhxJr47nLzht2vE4RRaFYHsLqG2JW2rbG8pS1PN/G8tRwoVjuIIpCsdxv8zphgQtSFxtU2YdE5OHQRhQKassMFLubCR4sFMux367GYrWatVcolmG3BD/FfGN5ihx2AXCJU6zixEGs0XQ3T56KaHBxi2mkOiJC6zc+RL+lsTzllINPcb8muLZQLJv8vimRtBFFVHaruomk2Hhjeco4mrNQLEuLH+RJ9IB7KRTLw9hJSVVy9GEgGJv3rSt5xKVnhEXXe7Qby1MlmdiFE7VRl2MVimW/kvYzoMdYGXBINJanwLjQ4e1GPS5MH/MkxrwLCTkQuVW00wJwGMXiOFQolvc3lqc6wqgLxXJg/kUWuE1jeQrE1VjGKbt/17iCDEQUCLY4JJN2Ln42o1lGR5u7yBBCjlbKzWR9CgciCg4ody8p5G4VQWiZi0XdRbVg/USGQrEsy6STcjLuN4zIF9CAQQGDAcgtUYDPgUsA6o8xew7MuHugfmtjeaojSQcJLXKn1EKx3Ke4B91Kg6AzbS0Uy7KxpK7zqBDRTaBtfeI3qXWGjqIg9Mm+t3yNUZXpMKQJbxUV0NmgHb9QLKvKXUKm2xWaPo5FUO4Nx+j5FTCDhePDeXq8l4hqUjH+HeDMdEHcQt0ONhi2lsYtXyJwfaxLqLyjzWsoaxyZWCvCQCWmFIpllppakoxvHic5ip4RmCbqRxjei2M/iGPkf+NEC7MAbgCEPCp+GMaqhFy7A+Jzs5pPkbafIo8oFMtGOde2nnXU2KeQYg/U5h0SxVDVMzC5V9y4ZEXxOgwjudIpshSmojOhuLPxi2FVoleMCx5rX47hIoLG21ieGkUTeJuxQ/deUb+UFYPbJuPgZH1yFBKuO4N+ESkn5q1bpo7HOOATqhJq48Igzo77x/Ntlhk5PH9Oq/xNV4tPiglSmlgV92c1gteTK/QjYEoNin3C3ZTlbI8n2RJAd46jOu+Ee+TRYcBQEWDQ9YhTCEg7dFz0RZgsGOQMjGvkEtw9igv+VPxsC6YfyLiDluWva4kCF5+IxXRH1QQjiCXOLGmEkCbfNsSVZGQLKDLKuIa0wrzJ5tKtmXcytrpqYzEFXJfnQnVQIGXHkbVOD8A1CsXyxoAWAwum0dNdRRSoqMlCOLZj7FPcCJTviSCC4WNNkmErH+qiQyC5J4qAbDxTJXlWouhCmIevWKGIwM1UG900oUEEYKruE61tEsPEVkFKkIa35IYo0DkzqbEbh7YWQXhJoVgekcQymWZ4rboim8cJwx29BQ2zrZbCLEY4SApW7BBz9YFT54lTyAhij0puDwtVsg7BGNLdXQIwfvTb8LkgV2hxBlTU58XMSyqbSSAIoGJoBIIAIgoCQQARBYEggIiCQBDQtD4xE9jpp73Bu/fLV7Y5j3jz2DVj73rwuokvb4P3p7zxtd79X9/lW62By/oK0ubvaCxPXax5bCjwTjH+Gtdeff7iJe8b0PJk37H3/n1j19yl1SBx4O2lZ2buuPzleL1DfslR0PSxsTzVavpYKJaP+FXYEJ+rbN4qV808+sU7F17HHy+O/71/3L+2+8b3tm2MqnMWiuXPe553kc89QBj3UdzxLf9QkEMy6H759cH95nzP8+72Oy+79q+/8YNrq0893fpbPOa8d+1e++73/rn5/qorz3tAaZIdu/rO5++YfuBoeH/O4JvWPv/ZS5s3fOkHzvbgIo/84PG2ePbJz9x3/0277z0T3p/xlt9Y+8rdlaNEx5k4oEKx/KjneTBxFxWK5Yvge8kxyon3u7mg0OWrKud5N1Xv9cavv+fUX/z8udNHLz/nu37nBlw0ctb2i0bOav3NLzKeCLhriRP31sby1EOq83PPw/cebOELX5qH8x8RCUP1zBCPNZanXi/5ngXptRF4wHlFQgMT7ZLkebTWh2Q8zzeWp47xu86PfnBrD1vP8FtY+KOXnXOWeC52/o6HMXnLfafDgYwgrqqc9xZGEPxFYJdhJ/3EJ/c9zwji49dfuAQEgYcqCQI/g4fbsj9jQbHYMHLxrc0xF09+lTd6+Tk9QOzw903Ve78T0zVbBIEEryQIRGIEMXHdBc2wFiCMi99/2xHVcUK8VkMkCK9zrKqCcDK0CAKfzxJ/DF6rwY8FNxqGQIJgmLj+wnVADPAnrFUgEkYQsIm3FS4Qf8wvECAI1Q4Ku8vmzSfVYae9ec/XjvbCT+QiRzxD6ISzjt2fml39X3P/b/O0//C93c1xArGzB/Pbp125xj6PAwFiofbuKgNwxzBiJ8wX3Pd9te/3AJdVcGLesfWjsGOMALhmgRvLJdypWmtVJ3cCuMPoZed4/KYPm3h5+My2aOQOooCTMDEECOQnP1l9AahMdkGQxcevv6cl3oTE27if3R7HU731ttoln578mxPZ37IHuPzjJ5sio+peoyLOnT9Ip/ADbARsvs86e5dsYf0l7I/4/nfiugcf8ET5Vc/z/pbbRFtrR6UzygDPi4nZIkF4KusTPGDGapgcFvKGdvID5VlxoVjexGRR/AhY2D0hr+OLG278ym0e6kZMb+Ff13zsXQ12r7d/bs5ago44UaBwB4iIC8LxUPT4DFvjUQHmG54N6ImSe/gI9+fx4lpAkYb/rM8Til2zuYc5F07fJx7D/c3WR8tAAco2rhF2vR783aN4/nkb5ZSUChawGpjU9Se+vDXoT09+7VmTk4NIgAuDTfZWvIk1zDf2kBh6eMuFTYBRgJ1O1I0YLn3/2a9h+gWIg6BX2RoC3v9b8U+Y4JvZM+Beo3hsPx5/Bx4PVrFvi8fbGNcxx6wr8H/Ds3n/n7xdOr84JnEBs7GwXXtW1AvEuYc5538Lx+IxLGxfuj5QAe/hznsU/s30jdexYm820m8p9slRTMyVjvM877ixgTo1WUkYlKOdIibmSqy057CQ/NSMICWCSAdEFAlhYq7Uh5XuggqbbRsbqFMCUoogoogRE3Mlk+p+q2MDdT+vt9dbqfWh2Zo/bn6lOkhEZBGkU1jExFxpAyYg6VYCZ1gcG6hLQ016KzW/Dkky7AeOtFIdDKw/S5CDiMICDDmCCClB9FZqUZsgAmZWqoNOlth3GUQUIYE6Qj1q34uxgXqHU6+3UrM9KU3FfaU6SIq7BogoDDExV7LShMWTEERvpaYqCWkLRBwaIEVbEzaJAbFN8lmcBOEhVzvUW6ktrVQHQ1Uf7AYQpwgA+hKMy7QEoMPSFIPIpIPxlepg7kvtmIKIQgG0JMWyc0vEJmmD+wSxkUSql0DpqBJMzJXmYxRlFvg/0PeQJkF4KFLFErKfRRCn4IAWpVh7wEm4hEsTsLpSHfR1IHYDiFMgJuZKs0k3Reyt1FzzIawHIu2t1GKtvu46iCheJIi1EF7oMNgu/MamNcsmHu6t1Lq2NGhXi08TcyVVx8xYwItOvZVaHFYt2+hKcaprOQX6HRIjCAlcJwiPiVMOjCNRdCVRTMyVplMQXcYTvp41oJ7RNc6+rhOfJuZKqfgEBNHJNPLVFWzrhjD1ruIUaRGEBFkkCMCDDlrMrKNriAJFJhcIIuvYm3fLVFcEBKJSvUPj0Liwys6bkA9gFcPa5/F1eKU66Fu6B3UG/uXXmH5Hb6Xm5TVXI/dEgTFMafsD+M6rtgPwZiDbL6qsj5l6gdl6aEqGlNhh4Bh5JIxu4BRxh2PrgN+lozoJoczocNDOHxeQ+OaxCEMukWuiwMA+FxB1AYM41J8WIXQbcksU6K2OXC3OBiKUrFlYqQ4GNkMn2EWeOUWa3mopDMyZlBmXInJJFBbFptWohQkE6BAFJfykjNwRBVqbbIlNhy0Thd+49q9UB7VahxHiRR45hS1r00KCOsmWuJXoibnSKJpSVfcE9zs7NlDv+gy8XBEFKte2MJ8QUcQiLoWoPtIsYz8xV2IhKFBSv39soN51lQbzxilsKdeLFqrzBWKlOmi1u5GtAm0IqIJ+YGKuuc+MjA3UuybpKDexT1iKxgpUdV1twiZBwL1j9uAByzoQw144PxJd7pGb0HFcFDawikWSw9aGlWHbp+7/uMclFm22UQA5zjI8PlgYG6jn2neSC06Bi8MW+i0TBAPjPnssEUScZXj8sNXiBuQk8iI+WQvnGBuox2EF6mc9JVaqg5FjhtCSlKq3HsWpXOZv54UobOVJzMQkN/djpOxmS+dzJUnpkGWLnxPIPFHYnJSxgfqwptfZFFvBD2FJbHJNdHk4bxwjD5zCtqnQWa/yxFzJVZ+BC+H51pAHorAlOrEar06mrGI6rdic3RnkSfmmCoEvwdmkGQfSabUwMVfKRSBjponCssMu7tijUAo86kyultcUsR4tY5lG1jlFlpxIxgYBVGCdywsJQFbL97SQ9dgnW0SxZOk8figJBQx8EeCthtisXWMDdd/zIScdTah4NH/dNVmDy6wg60Rhy4HlYrCbSBD7xwbqRpYxTINtOTZRWU9ENwE9KKtBhKRov4gkChxoczXBkgMRqj2mBCED+GFwBx+Jei4NZEUP6oBTRIG93xJHhMICJtC6BkcQjBis77ZwTiSOGdvn5oGNcDIH18Snri5riQShjEKdmCsNoXOxP8BnsYB5FbN+BM88+DH6GBLVZWzBOfEJK3LrIg4FeTGGc3pB1fdwYW6UEQQG38H3+1AnCHLibcVI3wfZb/ElfbbINfab3pAOHKq9pQ1niIIr/2Ji0otD3IqL5SuJAqqho6gUt/PrZo5A2mK8UGeJQ9dwovaWCVziFK0aq72Vmm6AWRzWjVgsJioxBq00aUSasmy61v2i/mIrkreFrHELl4iCFwm0HmKQnT4MkkzUB1+EA2bLHUgczU0J73+j5Wtkilu4apJNVOG2GS5iggTEJRNcyxKHcFxWCYMRXRbgBFHI+qn1Vmq6D9GGYiwSxR4L5+QRq+nTMiBxaDoGwoi9OootuMIpZIk9ug/RRv5D2znGBuq2g9qini8ui5gKIFIdRsLYYuukWUlGcpkogFsELnhLOkCs4poFMSmNqn3rMYapbpFzZiLswxWiUNnd92n+Pg5Toq1zRl5QaSrj6B/ZZcknlAlnnvOxT9hOyhc2Fo2oCNpaiDGIYmngUJjQ96wiCwGBD2oc41mwr8t0mKgN4W0q2NstnisMDtlQvDFUxWmkThQ6jjpNbnEwqkIqZseNDdQjmRExtsgK4vDJhMAhC+Kg85zTBU6h4yPQ4hYWPMMHJJ/tDHkua1YbDmlzC89CCSDnHXkuEIXWQtZtjRU140t05IXs17A/jpxvR7jF+oz5XYyRFU7hGSatRJF9ZVzJ5HyrNhKCVHAkzXNHCr6TxOACUWiz095KTTcmKpLTSSw6hufTCa0GgkjCQeWCGBXat+N6qc2spaNu1Y2gRfElLMfYJDHRBu3+iwkRBBOjsizCOF2FJYs52tolGmGHjyBuXCvRL1Tn2pl0+DdatrJKGE43f8lk4QKDYMEmcDGH8cg+KGH1bf4QTA5KpXlihgmDxKcYcK1BIlITYwP1vpCy+MN8lhr6Q0Bf2eaC0ouEkUR1Dptw2iybenuv3kot9ADC9o3DTDDTiXG6rVVKrb5Cw+ViaZkmClBuV6qDoVkxWplMK3lvdCw5qA1YVsb5wDsiCh9EJArAyEp10FoUKSrXrNykqtPonrQD/UDX8XMQYgXwODqlWgERhQ8sEIUXV4N2BlS2d0l24G0JFVKTjWlXUGwWilQHXSQOl4kiL83lQZaO7SHjjtzyU2Dg4C60TnlpEocfUMzb4CVcRzbryAunaMJmw3YTICcBs+x81MhaXYCYF4YQcaypl/cn8ckHGLphzUSXFmHwSKriNnCsKOm4IQ0NVuAyUbjgp7AaTWqT84RFgumjoZyGzMcDvhtcnAvBv+oeuEAU1sOhXSCMhBDW9HqID64E/0sEr38YOE2EqSvaK9XB+d5Kzfp5kTC2QP9q6ycPAUzDHNUQFWHBjMbcg28cowLWeMsdcI6EnICutj5uInWdwot/Zx9fqQ6mUp0OI22jFAGDnbtfpTdgpY3tYZKPhGfe8YywQnlc/evGkzJIhEE3dDKCHTFRDzQosLhgo1bFAyX4AJazVEWWhg1G5HOtO54RBDmiSLUa8vx+cLrgsitEEXdA23rYGQ17XxgDSuojMcRh0TkgJj8hQl1rpTooPgv2jNoCLTFHJGpVkza46NPh4QRR2AzTCMDNOPFW4/lB1EBiiLswtJQALJejBCW8LZ4MRR3blcidhUviUxxsWoUDSByRc6kxxiip3tGtvGghzyOsCKXKxXi4t1JrO2fEhK1MwSWiSCPxZB8SR92Ue8CiRO6QZFzRkOJ92PANP2X3CllOfIx6hjNwwvrEgMqeC8FrC6gMskVR5wMOMeko8Za4/E4t5oSE3cU1LH/S8PwIUbgzNovExQGnrE8r1UFXSrVvRcvRg/hqiRKgTKfUI1o0RrT5O/g2XZZxqqyVMyrgYTiG85XHXTTJWrV0RMQeiKVaqQ5CW90NCSnTUmiEjsQZAetHGEZw3fLkuUgU6ERKu9DWCBJD02w5MVeaTDnVs41LqIoUx9wU5VQfHSNXcNJ5hzJs0oSxhCEPPcxEzHGHKxIeSxskXELFNcLswibxTlsVvh7dwnNJxVZFgrMebSSMJEQpxhX6BGV61pFCALIWAyoFN4xoZxqHdLNoqcM4LZ0gv0w0g3TK+qRCb6VmO+5fmdedlmVJgUWxyJpGBp1RXFHYfBZZ3gpyVSWyImo5ySlE2Rh38Z4IvRH2cKJRj4wgIJMNJ9UVglC1FghSqE3jrUIleOFGJSJr9aekcDVHuw+zytqiP1Hxbcm02MyljyvDOI/HacvWWL1Dt1tSkugQm9A34Qo2QTgIH5oPus/EXEm1qegUqHYCThIFyKhg8cF+zkqLisniF4EWpVQVaB/sFMPFMUrWtcp6D0sKRowruJXTDjseTusUnIwKTqJS1PbAMecI2IK0EmGQvM7DRHaPo+6WbKxZMt06XeIGHiQXX3QAy8mAWW+XTh40EsFwWg63EFhUEISzFQlRBwuai8yITl5G6j5tEUqygBVqr4/smlV0WJq8l8JKYokHE0PELWKnwJEzIzp5Wci8Qxt4rnusYY88FUHEyeWsLNbeSq2NU4itCVyuvStDJtJRMaoyrz3WRmRdklBkilvss2Vo8PWbWLpGYshM2UzYSU2UzYygo4I5WplkrYszCZcLFKiQqcIFOQo+248dkESCqCdFEKZNb0IiE7FOIjJXYJmzSGUR0u6pFkrh8NDVv5JoSeZ0Gy8VMll1PIOEAX6WPglniKMSuK64EnsF8qwp2AxZLsW/MQPtrDpSLzEXYl9cF4zq4LSIbY6MwxiZiJJVwdE+bzNY9rK5S6LiPJpQSIlWc/veSs16CzAXqr3bQqYrBDpQdmUB45R6kHOx7qsHsarfGirOScVY6fodbPfEy6RCrUKmOQWPHJprjaGzQWCtK9vi2/aV6qD16vFpITe1ZLuhHlEAdK1O1vWZPBGEl7cCyyhPd2UDEp1aSrbLhSIy57EOQu6qjmOUaS4ywAygm5FovedFWm0O4kQuS/FjWHnXFATW6emNHmzb0ba6VTwyhdz2p+AsU3kNJGTQJX7b/ov9rnSJso3cN23BkOzMOpICsFPHa4y6hE0usbpSHYxcsd1V5MYkq4ME8hOShDRtVQbL7dNWHar5Gwu6ob1XC8g1ZMXFsgZp2qoMvZWazay33BOE121E4WFsEOoaWbVQzSjqQalgK213sRsIwus28UkGy2HbcWOLSSthrBRuQ1xMrcNsGuh6omBwnDiWoMe1yQ9QubaRsLSRr7HbDSCiEOBgxcDNYcLBLSjXCyvVQS29JW8govBBTElAOljC4m+hduiwRZM5bF6pDrqSl5E4iCg0kUCZzUXMw4hULxZrOT2scagMO1eqg0mkqToNIoqQwAy6fsxDNt2VWaPJWRPFWQchxaYZaGFmcxxZBhFFjhCiuywRgwRZztEmcOit1HYZEERXmVhNQZwiB9A0v0ICVn9eg/hsgjhFPuBHEHtYl1eCHogoMg6FYg2l74e7zelmC0QUGYbQ8J0IwRJIp8goULE+qOrySggPIgoCQUDXhY4TCEEgoiAQBBBREAgCiCgIBAFEFASCACIKAkEAEQWBIKArPdqFYlnmnNnYWJ4ibzBC9oway1OReoEUimVpqq+F80rz68Oe12lOUSiW+wrFclIe21xknMHCKxTLkbL3uh3OcArcReA1JCnLYjsRZlyys+yI4TrGKBTLw4bjiJKLTZCgRRQKkSKXaCxP7SoUy66Ws+mjhZ4ucqVTRCXspDaGqDK0CUAERc4z31ieIrFKA1kgiv0OjCErgIIIk43lKb7dVh+KitcWimX+NuC5jjaWp7q2lI0KLhEFq3DR1TsaiHaqBvGWLULQIfVcJJSZxvKUcwUMkub87FmuEz+IYRDjONGxw/QeCsWytJ90kuKNI9hRKJZ3uEocSaOrM+8ay1NDMkIGYoHv0hmVXQDXLRTLW7DBfVC1Q2uNIk12afHYtDclSkd9sUTlJuGzUM3XC8WyX4/q1JyDjeWpOirbTS6AZl9bJfrjhG4HqmEFwYfqYNX1RNFYnupTcIuD8J3ueQrFsrIQmWviWGN5ChyiTacoOvqcNAHr6pbo4wr9exFdTxSIGclOswkedtCDRY+7SixZbSxPOd3opLE81VxQtr3gso0grjAP26CAwBcnRaVcKkvyQ7wNchgVQexxnSB4AHEwAul2EKd4CdB695D4ISx8ficL4AwMofUHUzOi6vgutKBZAxEFAhZxoViWxUSxhSdTyEUAd6BqfBkHEQUHjImSBSR6AQSxFKSUu2Z2JKhBRIHAGKFdho0TF2zL4X7EYurR5o5fRWvTNJpnCT7o1iQjFqY+rCESqbDNwGQ4K3y0EGLMqtCPISHWSYb12IXpCi7+yXlRL8Ewj7a5zC1RcAu/PyY7/IO4wKAt1y7VwgR/h4TwwixGVag7cIAwVi4gkCuQi5QoMPAlUOi4HKuYiTeJC86v1D2IW/uECFRfWBZhTDoXqX5/oFAsWxcFs4p1CaQuDqs8jmEQw8SBKDOL8rbMjAqf9agcTyGw0fQnGJbh9z2EgHek0wqmZOdDOwrF8gbciPpwnsdjuIyM47ZxyXUJuPg3RZDbbQB2/XrUsHT8XXORFYrlMJ1So3i3gxbzzUE55kJoR1qtkKWQcPimzmU7ulqV7y+KjrkSn5Iyc6KC2tILBP2FBzzsWQ1FODLAeqarF6AHf9g14pBBYWA4LOOMGpDda0cSG5lkLQC5SCxiqMRypcIBxsl0wRGH1ejdQrFcQs4VVgrhda7DyAlFGBGFT9BgR4rAOpu7a9pJRjmFdhi7CbfgAWIdLmRb2BCSIDrWCnCEQrHcQRTA5QwTorT1wdxwClQkrSXJxA2djULlm/CBMbdgSNmptzmAmGVRzNolidAxK72u7MM8iU/DGSsNo7PgdcrwjPCKuMoS5TKCuBtwBEyXbQNYTjWtkVKTuuq6FDruKCRm2BnZSNGqxEMmf6cJsCRtRzE9VCYcYo/ks8BN0MecLeUSHhGF02gzw/rJz6JeaFtxNgUYHmBM+Oq3YX1ThaRoOGxl5uxVP+6UG/EpjFMvQoCd1vFhIdEldJxYOzkusd7zsbhEGJfVtM8Q2CZTmFUiY6FYlupJQf4iMsm6iTZdQkcpRyvNqOAoteGB56E6X1L+IahMsioJbbkZrVEtDumTAiAVQ3l0rfhk2QRpDZLdTSn7ijAptJBV+OzyraxJDBeRVlXRMeN2s04hezjGId02gaZDfndbNPU7dEny0hbZh5wu1ZFW7Bk8m24Wn2SxS0n1wlChjVAby1NhuRlbNFGsPTJRKcr5rAF8KoViWea7WO+jeEsJSYZuTTKSsmCJeTNNGEfTcvdR9yIqwLJQeJdq/KLvYkgzdH6niXOyW8UnmUiymsI4VBihVmPBQP0iaN5mTJ2ZXccpfHaXWJVUMW/Fx4S86BjHch3TAWH8xlmOXUUUPlaJhQR2Zp0QlMMR9IiuAs6lVKEWcKhQLO83KZjdNeITmmBVVgkn0jCzFrOUFpDr6hAEA/ThWNM1w3cFUWAyzcOy76j+UnYA84jWJRXX3Ybzqep+9TASR/d6tAPyqq0UP8ZJ8g19TjsWySGE0ttUzXU4tOVhYN+RDWhQkemPh9C6Jp23XBIFhjv4RYuGTXzao1DqDphU8+gWCLFSfYrgPKnDFEWd+QCTq3IeUUfcgA5RVTUWNm8jvHEjT0lGQYTg6ZS39ANEamKtpKgI7YPIGHRirzqsQxqRryO6FjrkBD0BxLG3UCzv7eh5lwP4EYSR9SHgIfcoCpzpYjP5IFpYNXCqQYHr/rBF2zji2IA54Mr5y7NOAZX7huNIs+yGwLsEoCvC7rRplcMNqTl/KunCqKqkwgAAIABJREFUNlHI4v6TCg1YxIJmZNZ0BBEse4l0acW10lwvfE2onrU1W5UmCYR8gNJRCQQBRBQEggAiCgJBABEFgSCAiIJAEEBEQSAIIKIgEAQQURAIAtbdelvtkuOPf9nb4eOLRs7aLh5wx977W5lqR46s9R51VM+K6ljxeP6YQrG8D5uaQOzJ8xjLcmZjeWqJHcOPJQg//enPv37CCcedrXPsM888+40PXjp4O7yfvOW+00844bgKvH/2uRcev+R9A9oBfvy9BUH2fDCsoAMqL7zi+Ccay1P33P65uT0vO+bo13oa88a+F8cv/i5oLRSK5TMw/fNXsQAahEx8tbE8dbHP2JvjDXpehWL5857nvQPXB3iU/83zvD9sLE89FPA7GNObVN9PXHdBK/dCZ83CWun58w9PP/rFOxde50nc8p/45L7nb97ztaPh/Rlv+Y2m6/uh7/xTD15sVrzI2NV3Pn/H9APN46/80Pbn/mz091+GWVJ+qZhrjeWpJseqXDXTGksQbrjugic+ds1dr9E59j0Xbn2setOO18P7i99/25H7at9v3adJKIJJo0l2Xpy0b+sc6720efgFL0LK6sYdF93y9Nw36seLvxfHevppb/Du/fKVPZ5k/OLv+OcvqU97JKAS4B08cXDXao5X9aNCsXyj53lX+ZxXdX+HdLrCfvz6C5c+evWdzeC/9/5x/9ruG9/bJh3B5jJ+/T2Xw/viya/y/uF7u3uU4tPtn5urM4JYf+LLva/cXTkKXuz73Z+cbZs42GUYQcDxSBD7NHKTeyx2NQ0ETxB4n7Jq1lagQxA8cAOxEs2rgys/8oUjmuNa0yiNeVGhWD7f5Pp4vC9BeBJixr+1EsTKw2f2wcYA+MKX5ntgnfLfT+752uXs/YV/9La3eKqAQBAxbqre26pUd9mfDl7K3l/zsXc1rrvhy4XVp572Pj35tWdh8cPnM1+cv01yPD/BjzWWp16vullgn/B99aaX6lv57VyAi0fOavubnY/nDDxu++zXnxA/+8d/fOwy3aaOkt1zTfUdgieIZxrLUy8PuAS/gcTewhcWye4b3+t7DIo1LUiewaOe5zHufrfneYGiEoe7ufcdz0eyPi7GjYZHYBQtcEp2LlinTJS+9bbaM7COPZRsRi8/57ueStG+/bNf/w57D0TATgK49P1nv+aUNzZFWW/3p/YdAwQEi235x0+2Tg7Hi4MXCQJxB/c+9tS1PbfcV4D/zxl809p7Ltj6M0/COeJCEEGgGMGwFidBsJ3TQ3Ey4PCLuPdvFb9UzGsgCsXyJuE8sufzbsk4vsF9tqAbFX3Vlef9O/wP63TyM/c9Cev2hhu/cpzHSTbs2A6iAJbKqAdkMCAC8ZhzBt/0Fvb+Ww/98DvAOSQnv4H7iaokOq+gxbo44SGw+/qv//V1n6l+YscJ7Lvdn5q1XghNWOTPa/zkA9z7Kdvj4fHd7/1zc7PzcFOAZ6PzOx+ll6/2rVtnia/+/YziejKuczz3vfbGMXrZOa8CnQFw0+57Xwnrln3HS0KeKD7Bjg8s1cMFLiolrQtcfs5316076udAafCAFSf/de59YPnzuPGvT6y0JpRZnOAhwc7x6cm/OfHKD1kX5U/j3q/z05tQJNnA/d1hzfFDGJ0MNrs9t9y3BhvFIz94/KGI5vlFTvTbqtm5lC8k/fcRru2rdPPiHugMN1XvbRIDW7dMsuF/0/YgHn3siZPY+3eed9oLfgP54KWDxwPhMFw0fOYLwsmPM7y3WMGIfegPfqclLowM/26DvY9B4Zb1RnAKl3zg7Ac85BaiAhoBzuafw2YORMD+FsUmhjZO8endI0fd9dffbu46YEk6ufiq+iXvG1AWkPqD3//tx5giPHH9haLSzu8ep9i4qbAASxr76dFHH3UEzJniqUwUbk38O7d7PQZ6XVz3B4YF8TMd0/boZeecdedd31oDbvnN+Udu+73/8VtQSkbLJC6Ar7ih28qLXx+/HnBsEL7qeR6v2ygtnkAEuz+1r7nG3/zmX5OKbR3Wp2uvPv8WZrcdv/6eUy9530DYgT7KDe4C0OnCnigqvnrv91q79lf3/d062X3HoHDPcwvslRoK4WFGRKCPNJanPqJ7IZml7Yt3LmiJVDve03/pDTd+5TYQJ0beuy1sqX2eK35f+O4Vit/McuujEPK6TYjiZlQTf4ccCfI2z2LOOntXqAsIAz1edgzKggyxVbh45AePax1nU+EW7l/Hps7ntwfa7m0BRF6wxsHp/vzDM7IaSy0jgVgkmgPvDBWVcanZX8dqJFyPjaPBff9c56+iQ6pcAYthZldYUODZjnoliQNmXlgssRQWrnx45qfsPdexs+3FvgeF2/Ll+QUF5RpvFE2R3NjaFgl4kA0sOZFwyhtf2zSfM+ucAJ57bEWHLBvjJmFe+ffivcvuZU04ZhP3txgJwcbxZu6zdfic5vlX1OehtDjwZlfwbJvE/XBos2vjja9J6oE+w8dA2cQX71posm9G5DK8/0/e/iz72KbC3VieOkb4CDjAQf45CIuKL53Tgw0O14SXSWFhLYACCuZ3xT08JCz2IW7cB4Vjj+Lei/cu3ssh/njEQZ/18RCed0kw8ffgsfwrEpREAQ+K2bIBY9fcZWyzxBvpEx6qiFkNT28ofOFL899jv3vHeactqs4xfs27j2XvUeG2BuREHYqw4nkt4fFSBTBOqMzv3kuL3a9+1prMo4+f+UoZeIzf+lgQ10djeWqLzJFoC4mXuEE2+v2g6EeCu8CYpdfEUWML14dWZG1coLpPBIKAiblSCfVd5jFn/5fQ/LyK1rPJsYG69QqUBIJr6OaOwYQuwsRcqR83evYyDTiASKWhsYE61cYmdB2IURAyj4m50gbM3OnHV9gmCSLAOL+LmAOh20GMgpAJCMxA1QjdBsCs1B/GpNRbqZW48ZVCjpF5JsEtX1+pDibVx4JAUIJ8FATnMDFXGsLNdkeCY1tEBqGlPfRWahClsSvhMXo4TnCYzq5UB0nTISQCYhSE1MBpCaMpJilqaxCoMUw7mFC5hEyLmAchFhCjICQGdCgDUzjXkac+MjZQD+zE3VupTaegOUTBKmodk8Q4CDZAjIIQGybmSsMo6dpyLtsCSOClIDNTb6UWVAA5KwDGsWulOkh9tAmhQIyCYA0OMwYee8YG6r45772V2qTlMkeuYcHzvOGV6uDBbA2bkBaIURBCY2Ku1IcmDldMSUHwNTWhD2I+xogqFwHO8VGKriL4gRgFwQgYkTTpuNYgw7axgbpyM+yt1EATujbVEaaPJdQ0iGkQ2kCMghCIibnSKJqUsippB2kSefFF2MQiMg0qUUIgRkGQIwfMgWHn2EBd6cTtrdQOZlA7Shr7kWlQBFWXghgFoQUMX53NkY1+ZmygPqz6kphEKOyk6KnuAzGKLgcmvU1nyCGti9WxgbqyPU5vpVbPQidChwGmqSGKnOoOUK2nLgU6padzHOHjp0m4mF2dNcDzO9BbqcGwR1aqg4GJi4TsgjSKLsPEXClrWcZhsDA2UO+X/a63UgMGstf5O8gmFlDLIF9GzkCMoguA5qXZLorskYbCYiG/A+kMqavQrJ9FEVP5ATGKHAMZxHyXmVn8tAnySyQPMkvlAMpGyYRsY2KuBBrEoS7cGKWbEpqciEkkj729ldoalkUhZBSkUeQME3OlvNcp8sXYQL1H9n1vpXa4y0pziFjFhkgMYRsrRcXMSnVQGWhAcBMU9ZQTTMyVurFOkYgF2Ye9ldpoxp4LhJ4exI0dXgddtvdjjawNyHz4/2U+sR29ldoOYhjZAjGKHKBLIpl0oKpRtMuhMa5iYAGMdT4PeQgcE9OuEdVbqW3ordT6sd0rRUk5DmIUGQZWb613uRbBQxbpNJzS81niWpZSUpoAZA5UfDAjIEaRUUzMlajaaSdkkmkS5g1qRUrINciZnUFMzJUozFMC0ZGNtvOHY7jUAnaMI4mY0BUgjSJDcNTUtORwYb0hS+ehVqKErgYxiowAazPtc2y0Cw5ley9JPovCKKiJD4GAIEaRATjqj9jjWL5Gm8MYzU5hzHO5zSTGEGppRV2/7n8EAjEKx+Fo6OuIg4X1+oS/TbSJRaxNlDlHNGqa/fgK7beamCsFHbKAUUqzYwN1quHUZSBG4TAm5koutujcpiqTkTJEP4m03pOAzCR9TcyVhpH5pdU3ZCu+rhWYCjCQybGB+mxK4yIkAGIUjsJRJjGC4aZZ6ArnJyI7zSCw0+BoRppJNRkIxzyavh0yZeULFB7rIBw1N+1EP4BrDnUeG8cG6od9yok7aWJC38FkDsvAN6PF/HqWE7IB0igcAxb1c41JQO/pyYm5kusZxqzeleivAGxfqQ46Yx6ZmCuNYpJenrPq4d5unpgr3YxMY5hMVNkEMQqHgHZo1yq/Lo4N1IdxY3Pd5NSPjIL3T4AppOSKFuGoSTEJANPYhyaq/cg0KIs9IyBG4Qgwmc7FFp1s0x1NeRw6YKGfzGC+sFId1HFqxw6q7tsG8L0cmpgrgSlwaGygTrWwHAcxCnfgovNvO0h9GIKZGQf2SnXQVka2FVB1XyUgnPfAxFyp2TqVwm7dBTEKB4AJda5txDOcPTkrfQOcMumQFqENeD4Po4bRTyYp90CtUFMG9rV2sQosb2rKQphmExhamjqwcOPDxCSMcCqapKjHtmMgRpE+XGqqw7CTSXWubLwGSNWXAtrhxFxpjar7RsIOeIYZXHu5BZme0odrUU6rQtx7YG0Hx5CK9oNmpjhKmnczHpyYKy2MDdSJYaQM0ihSBIbDugYxOUpaRM7x55rYxgLRahNzpcPEJGLDVtQusiaw5AqkUaQLp6JzEHnIou2PO4oMfUvzFkxMi9iZjx/vQa4aLl/xdQP+3ZeRKDSbAGf3+NhA3UVTbe5BjCJduKZSL1DESTAMwl0h7HOWq7oa5tlqMzyUulnxwDwyEihI2E+mqORBjCJduBYRQ+UVfBDAIFZRG5tOK4EM8xBGeYc+aj7D+FkemMdWNPX1kVCTHIhR+ACa36xUB7spCUgmvWaRGGW1nkJDwSCWsOCd06GcuJlO8iZFzNsZzXDo7noMo91MWd3JgKrHKsBVII2t4xmGUTqDsYF6j2SMoOY/6NI4NWDFli1hEOPYeyEy80RJP9BBG3e5bpzfyQyH826jkubxgxiFAr2VGr9JbIyjqJxjjAKK/0k3LtcYmgYiMQqMRtuL5qRRHa0BN9wh3PyTzhBfRW0QtN/5sBsn3sN0Bk1UxCxiBpmeJEBtgpck67bNGYgFh8pO+DHC/VnKzg4b8YQaxBCalDq0qwDsSnEu1+P8nCvpQOdhZNU0OtSVphrcbJvr3NE+7SpAvgUxixhBGoUEgjbBYL0rmmPEqExswqKALjcsaoPpJs+VjBgNa1bKYPlwLed7xupVEbOICcQoBPRWamA7PqT42qq/AkuLyzqxpQK/DRabFmXBJKGdyYtNoqZtVC3NSZ+JGdSmOhiHxbyRuEEO7hhAmdmd8KsVtLe3UrMWw40Ler+t88WMrCQ6aScMjg3URy2Wts6DJLsDy35DJvRB1CSbAE0LfVgb0ZTlKg4gUyNYBDGKTgQVlXsQfRhJXS8x8BuDCHTourxBAJZSbLWZtzDqTdiRDpgG60mSFYZBfS0sgxgFh95KbUjTFmttIaJWsdPW+SIiyAfjel+K1JhuzntBr+eYRh38FhzD2IL+DpewaWKuRMmjFkGMoh26G+H63krNmh0Uq7W6YII6109tRzPNeLJD0sZ+BzbrmZSvnwROxbpLwDTAn1EfG6jDmhlxbJznOlp0M5MgRtEOkxDQTb2VmjW79NhAfQizfdOGry8C8xMWHBgnj1V8fmkjC33FbeJaZBizGHrb49ja2Ev+CjsgRoHordTCSB9bLTOLPgeYxRUYjaUERhW5wNQYnChBjaG1rpgRk8S5WFKjjnkoWxwaG1WbtQBiFC8hrEQaB7NIWyrTuZ+SI7Zpp8IhHTIjpoFTMbR8ErULF55DoOBDCAYxipcQJfPYNrPoT9kXsCmobzFKz30pMotVV2PmHTIjpoWtWPYF5mabA+PpNpOgdVDC3YtmJ1uF7xZWqoPW8ixQEqqnmBU7MzZQ9zXJoQ34YMJjVNalcgkZSlKMG9vSriEVoiQLgQNpFC/C1ua+1XI01EGMKNlj65yG2KGjWeAYk5Kgd2aBSXjumBFdwINYSyy1qDCKgIoGYhQvwmbHLIiGOoylQKwAMohTTHDagU5KX+CmGKdNGu59I/oAMgMHzIiu4FTM/E7Lb0GMIgLI9PSi6akeUw2bzSvVQas29JSLtG0JKnkRQwFB8EX0Wyy1kQocMCO6hNU0ngOZn8KDGMWLjCLOh7B9pTpoPREsRYaxPyhnwZLfIhcMQsTEXAm0w5vdGlXXgKrLhkTXMwqLjmw/7FmpDsYSeYGb8mwKlUtHghr6hCyjDqaJ4bz3Qw7ov02IB1Y6H3YjiFEkwygAiyvVwVidsFxntqQQKPVrlqdeRObQdcXciGEkCu0S9IR2EKNIjlEwbFmpDsa6IeLmPJnwBuSrYUhMZQvIHKh3QPY6ymUVmQirdhHEKCq1NAjUerc8FZBpwD1ekcT1dHIvCGogQ53OQIOgTIIc2uFAjCIdRuGh2aZkOyoqCGie2pVA8hPc3xA5D8MDI8imKVLKHohRhAMxivQYBUNi2oUKqHUwlbyf+7/PEkNZQjNT1zMNCJMNY26bmCv1p53dnBNQ5FMIEKNI3kehQuy+C5vAvIASMpSSQdQVaBqjQRFTeQaEyEZJHETGPoov0jbMQIwiBIhRuMMoPIz+6V+pDuYiNBSZST/3kknDC9jQv2uId2KuNInZ9rbOtwEzj0dJ4wgEMYoQIEbxYqmNQw4MhUfq5qgkwDGSIfx/PTLLyTxrHJh0dzjue0R/1HAKOTYugxhFCHQ9o/Diz8yOgpGV6mBXmmhQSmZMBDSs+bz0pWb+BqyPleR1u95kRc7scCBG8SKjmHdc6upahpFXYL+GwOz2uJFgFJwTIEYRDlQ99kW4LqnuBa2nt1IjZpEfLGBSZCLordT6sKpxm28EGBVoNrCB4iY6kuOmS2lUX84FSKNw10/hB9hkhvLi9I4b6AthUVqs/Dv/3kPzFos6O4ivelw1pybmSkyL3ZlE6XRgFEL12mb0WZCmihnjeTFVUQmPkCBGgeit1GYjtkNNA0Dsw3FUp80SMJt5GH0acWc0r6IGOhvFZ8IxisTMISgQ1SVmpiVcR75OXvStTGY4a5yKAoYEMQqEY2GyYbCAxJ7r2km4WY06yNRnMMxX6/nzjAKqC9sMl/UDMgu/EvBa2ipqadMZi6iiiKeQIEbBIaNahQz7kWlk3jSVYWfrOIb5SudAYBSAzUkVSOyt1EADe1jj0J0r1cFAs1iGmMbGvJevjwvEKDhk0Fehg0W0RWdCksJNZzInDNtT2cUn5koHBeaXqP0cndq6DZQWUcsIZGSo8c066NMg/0QEEKMQ0FupJd3TIWmAiWTSpXIhGTVj6EKqKWB4rIhEw2V7KzWRWelAO1TbsV4b5J+IAGIUEjhQKDBJLOEmPZ2kfyOlnhlJQxrRhFK3zB+2OjZQ35DUGCMKRdrVAxzRMsg/EQHEKBTAnIVu7jy2hMQNmse8LSbisGnCNpS9xaHWk09/kET7eUBuRcS50K5PlmKfd2pYFBHEKHzQZZqFDSysVAdl9vhu0B54LPmV51CYnXhsT6pcicU17jLDILNTRBCjCEAOwmaTQDM0VNQ6MGJpssvqCvmaj7AgYJATOTETVAzr2zmGQWU7ooMYhSZyFDobFcynMSnbDLq8wQ4k4/X5hWBqaBMMiZmgYiqKacIwTCKwTEGteS2AGIUBMHx2vsv6Gc+go1vpCKTua034mpu8cFFAiURBxVw9WcvpjebJOGgrsfyUPIMYRQggw5jOmYbBSlP4MgUG7Oc8SY1ymgiM0UczXJgIoy1jA/VYQ5kTqp68TXNd2dQuSJuwBGIUEYFZrtMZ0zIWccyzutFM1MtAiUBHKeaJHAh5/kBzVlQkWGZ/caU6GBh9FPF58SBtwhKIUVgGxqa7UHJiEVX5+bBFA9GktIs6pCkRKO1b2vQCzVpRYCFE1hSB2gUKJrIChrpIrH5WN4AYhSa4EE/twm8MqHX0Y2nrUkTtY5F1fGOlsG1lWRNj0IZWOQiM6tGpqaSD2JhFSh0e96xUBwM3ckmpEx0kmrjYDSBGYQjOhtosvJfVImPI+Ia6qbuZJWhl+MYRyRNHmKdBgcA4IM27ERGCWaTeOTBvIEYRArjJ8qWal1DTcHJx4nhZo/1uitiyCW3HqKQyrBXExCjSrm22tFIdDIoWMynWqcyIJ4QHMYoIwO5fqqzWlsM4CYcaElM/9yKGYAfNfAAdzdGnhpMVxMQoXMgPCnRyY5TdPo1zUSnxGECMIiIk2oUuFrn2mzoLm6noJYo6SgQmDCKq41ULMTEKVzaAwHyLiblSEFMjk1NMIEZhCRHi5AluwZRBJJaAaZtR9FZqulJ6UtjuF6EXEBxAORMxghiFZcRlnybEDhMfRBpVUK033kkwf0IXOv4K2ZhjDR8meN5R9AzsAol5CyZKEdzGEuZC9OgwCSgPjrWaHk7B/Ge1lwIWA3RNoNmEWo4fZM+BOtfFjHW5vruUgElYG8gc5SRWMaxZKwkRw1x3OeAXsl12PLAXdkoYDrjXeSGAZDtlX8cPYhQxAh1r0461hOxGgOYwqsMcMJN6l2PztWiz3hOGxLoaFWeSKLczqb4d3Q5iFAkAzRrDxDASwypKzJNBTmlkDMOO17CyLf27qk2YYEbWZpYQD4hRJAhgGGjK6LZS5XFjCTe/6YBeECwbfTRDz3/JZsgntvjNcnh1CZPqKMIpQRCjSBi4kZWSDq3MEfajDXtWxRRQS+hHppD1UvDWCtuhycl1jTbIab+BMq+TB4XHOgAySbVhEZPXYMOoi7Z5ZLBikcW81qqylhvQW6nZKt0dNzbrlr4nJAdiFA4hxwxjgXvPS4xs02eg/JOXYDU3oLdSC1OFNWlodcMjJA9iFA6CwmoJNpvuOJhYJ0Ngsh0hPRCjcBiYAZy17nmE6LDJJLKgpTa7+K1UB6mYn6MgRpERQFaw53lXdPtz6ALYZBJ+1Y1dATGJDIAYRcZAWkZuYbU3dkaYhFYPbUL6IEaRYaAvY5LKjmceVpvtZIRJ7FypDlLCXEZAjCInCGiiRHAXWq1VdZEBn0SzjDuZmrIFYhQ5A+YZ7CJ/hvOw3j/BkW51Kqwig7BWs4qQHIhR5Byoabhcx6jboN0YyQS9lVrdUb8VMYgcgBhFFwF7Ok/nOJPZZUDS4VAMDCJsK964QQwiRyBG0aVAE9UoaRuxY2dcVU57KzW/1qBpAWpxDZMPIl8gRkFoghiHVezH5kixbZa9lRrM083p3F4HQHsYWqkOWu3CR3AHxCgIUnAluXeRqSoQ2v0vbMChkhwU4tolIEZB0AbX5Ge4y5nHKpY635VkG06sAFtPUeOD+95FzKH7QIyCEBkTc6Uh1D6Gcmi2Ykxh0mY7UlOkaGpaQp8DmZW6GMQoCLEBzVf9XO8IVyuYLrL+F/C/a836Uwh9HQfGSA5pAgMxCoJT4BoTMfThywQH8QU4nKYmEAW9lRow2AcTuNQMmpSoYRBBCmIUBIKDiNFhzRzv08QYCLqgntkEgkOIQYtYQKYwTfNMCAtiFASCI7Dgi1hEbWGW/AsEmyBGQSCkjN5KLUzr2/2oKczS/BHiBjEKAiElaOZF7MfwXNISCKmBGAWBkAKEkuBLyAzmSUMguAiKeiIQCASCL46ix0MgEAgEPxCjIBAIBIIviFEQCAQCwRfEKAgEAoHgC2IUBAKBQPAFMQoCgUAg+IIYBYFAIBB8QQl3XYJCsbxL804PNpanqIAcQYpCsQwl4DdoPB1YR6lWpy0Uy2LJeiUay1OpN2YqFMusd4sO5pMcMzGK7gGUitinc7eFYtkjZkFQYFKz/Pk49ltPEyWDSrw9Dkw4MIlrDY4nRuEikOOX8NUv9I3e5oJUokJjeWq2UCwvaBJ5s19BOiPtXnDSej/XsKljvhrLUy5saoQugpRR4IaYZ/DqM99BzdVWnbYAfZcf1jjX+kKxPNlYnhrNxm3FCzTbmUh6BEKuoNIokmi/SPBBoViOq8OZLq4oFMtX5GWOSAonEMKDTE8EQnawhL6mNqAFQCXcLWD/8Do6QDPZP5yQLohRmGGVERz+X087soOQCA7ihmuCPsGHpcISrie2juYtRwxtxdcODwMVBCyiP2q6sTxF/S40YRihpAuT8/UbRDKGwTS/BlWMYjzGAeii38D0shAiAgA2ep4w6kQoBBkwAszIuW/g1wCCTDM6CFqv3gwvjokAPe1yOTjDAZhGKNnG1phN07zwImcUKS/cJpDQdB/EvAtjtonG8lTsAQUBJgsZNpMG5SQOo7br1ynPBEB3D0KUXBLr0BSFYtl6Ex2dc3azn4tMT10MkBgLxfKIQb/mA4ViOdEwYEyamuQi03SQO8HBD+h36EiCKxTL8MyGUPo91+ikBAIHYhRdDjCrFIrlw7rJeChpboe8jLieHDKH6RCbG/SXHiYT4otA7W8SXy1wDGRU049C6Hy2u2wnFBqGYY8nKQwRoyCwZLxtBmaofYVieY/NPAs0g5mYG3mMUCa5PmQMJOLzTxq6gQUb0AejA9Ngha4CMQpCE2iG2ogOLB1bN+RZgFRaCiPBo9Ywiq8wtnWI1hkin4kdoDmx5Y9AxjHk6Fi1/CYmPjgXfTEugRgFoQXc8DcUiuVZTbMPmC0OFYrlQDXYAmPw0GE7lLCPJO6s7GsLxbLR+ZNwquIzpqgnQhPEKAgdaCxPDRlGRLHNrmUCQm1j2IITdRX9DrH5RAgEgj+IURCkQImyp1AsT7NkLQ3sLRTLuhFUfgB78WiYLOKgRKhuioYiEGydgP+vAAATu0lEQVSBGAXBF43lqWFkFnHW/1rCBC8bDunhAMaWG0aBZrGmeYiS4whxghhFl4Nr7sKXUI8zZBKYApiRJm07ojHs049JrJqeM0wYpGkiYwSfw7XMfyIpzcGwiswEXrPk/LcHLNxpEya5QsMxVPlWavHEKHIGbvH0Y3hgyaDuUBKAcUBVWvCDTNravDRNZJMB39uC0XVg7KC5xTSW9egnOlco0+FRnafISDOUeFMMNK3sXEiMwlHghj+Mm7xJPHjSWMLxmUYybZLUGOKxiKUpDksqpiqb+vhgMQn/RKFYHg4xVzsg0iwFh72sztMMmgFJ8yC0QIzCXfQbOJHjwBLmVGhXyrWctMVvtlEjp/ZDJFfEcwQCzXhhnfmQxLjRRLIHkxV2xeO7LkYVKHYgE6a8AgEwv92qea2Lo8BWCjCORU8QLrRIXeWq5dbZe9vjkiRt9aFWNJyS6WsB8y6SIu6oz7NuaKdmdZ6kdmVkXKxUh6saqVPgouZk1asX+PXtepFAFCJ0Olp6qHEr1y9pFG5jiSv1e1DoWeBZ7ltgHTi2DmcwMpB+zoFuaxNbRP/AbNKSH0YgRb2PTeAgtZUljM+grUQ6PvtdKWurziEnAnMLKCSYCC6+a44YhaOIo+iYK0AGYtzjwVVgcqEtjXZrnM5tfPZMy8tajacOoNS8gfNbsVfJYtn1oDEcNNCYtyTUZbBucP/bgwSrdQ4XwzKJ1OElb9dA0SQ5BkroupV3dQHObS/GSKgWeHMhV7VXGf2SJkL0T7EBMNtOYji3ipZLBjXSHi4Uy7H2dcGwXd29c1wniKJnbc1NjcvlkrsEgvfSxqq7QYSBc42DcBPS0T6s02RCjGIGmYKR1I8CwwGDn8TCLAwrKczoCiNkenIQBsRIMIRlB6QNJjHu4+wHMxT4oYwc3ARzRF0XsOmDpmDALKAJmFUzlEExT8+ESQCOCj8sAqF7gXZpPyYxo/twkBGoTMDg4D6MEitBD6v4PLXnwAZQQ9hscKqH0b8VGShc6jKJ/aZmTWIUBIIhNJyXm019ZmhiGld8vR4lUCf7QySIg/iMtkPYued5kHfSI3ltwOeZeLAEMouNBuVi9qGZPRTA/InrUdcCMRMmp4hMT24iiagI3aiQxZAOed1ghLDnTxyaPonNaIYwHh7Y9NF8oIp936fT+yOv4MKtnQbX10U3GgrywPpN/VGGeRJeFL8RMQoHYbPFqAoGfpDRMIl5BsEIoc6fNDSclSBB9kXN30CbdU/Q/GTAj+VkQ6YkASZFA7/BVszl0PJbYJ20KwxuJ1LiL5meuhfkLNcERtv4MYkFNHdY04xQutxi63yEdIBmnu0GF38YI5ekAIEFfFYGTGIJTXSRhDFiFF0ILFynhW7vc4CakV9I5nhcIawgWaKUnahTlmAXmKewETdtHUAezZpYRhwZyAGDSLs9oNXYEGDI9NSd0LVTdvUGFWA+A1NTKYkSKtg8apR6WGcXuFn34TzerHkjDxaKZZbwZ2LGs2IG5UGMosuAtk3drE1KYpQjkWq0PJDoS+yjtBLx0ky4ywMay1OTqBnMa9YGW2/IJEYsdYpsAzGKLgJKyLq2zRHqSSBFUrV6CDkFY/oYtTRvKbPfKIHOFMQougSGqf3jcUglGUeshEjoPqDAsSFEmCuPRNYlMYqcI4TUshPU4yw/lYCS0ab1k5bQF0HFHQlWgc7q6Yi9WnZgIuZwnB0SiVHkFFw9et0eCYk5Z7OCPJd6J6QDjDictFxIcj0mY3pIx6O2LQLEKHIGlC6mDRdiLA4wTZRsRvNQTSSCS7DQKGo/NOIyYC5wzN5Cscxa8lrpgU6MIgdA5mASzcQQJ4PQdfhCY//DNsaBRBl0XTIhEWKDBcawimXORU22SR8haH0H62+C557G8xsxDmIUGUTErmSL2Ec6VhMT2EsxBlxHCuIloDC1n0y6mZGTvgvANWGKDVxP8l0R/Aw6jZFaQD9E0xcRgimtx6jHK7haZPvx2r5aPTEKh8EtxCGDEsIyLKCzK2n/Q8mwJaNnsX+2DDNxOvwIycFyE6M9QQfgpjzs0ztEF0aMwQ+StrZhtBnYV87lGMcqM3XxYeDEKByDpWJvizjRqUrPuJA3oANvr8ZP4gIs/n7KfyBIsKBZhNOkex0P8BFMJ1EKR8E44P2ogbC2npmroDgl+5AYRfaxhBLKrKsRS8iwmI21HzWkUoyFCRfQQT5NUVwEBZbQBGtTeNiPa84JrZUry97ydyD9DZv6UIhRZAOruPHBApzP8uaHkhXVLCIkAb5rIKy5uqVNnDmFp7OmpXL010rSw1yrYRTgpGa1nrU1v9wkAoFAIHQ7qMw4gUAgEHxBjIJAIBAIviBGQSAQCARfEKMgEAgEgi+IURAIBALBF8QoCAQCgeALYhQEAoFA8AUxCgKBQCD4ghgFgUAgEHzRLOFRuWrm0S/eufA6/sDTT3uDd++Xr+zx+/Gtt9UuqS8e/Iv7at/vOO7Dle3eJ6r7On7zZ6N/8NSVHxrSKlB1x9779/31PQ8NPfKDx9s+X3/iy+H8S+XhM1tNagrF8vme5/0lFKEznPLHsLLqQ+IXsudiAzdcd8ETH7vmrtfYPu97Ltz6WPWmHa8XP5/8zH1P3rT73leKn58z+Ka1U9742jNGLz/nu7bHAnM3ds1dQ7bPO/D20jMzd1z+ctl3hWIZip990PO8X+ULmmnCtwVsoVjehDW1BjzPO97w3NBvYyP7Y8dFtzw994162zl06M0zoFW/5188+VXeB9739tmLRs7abuNaIgrF8hlY4sKUdpS0yKAomtn2fMMgwpihAuwHGstT95j8KOJabeFjH3nnpfPf+sFfPPSdf2o7xylvfK33R+efETjHDKo94oI/euvaa09+9Rmhaz3BiW//y6+/cvWpp9s+h0VYHjlz8ZL3DZTWn/jyg5+o7tvEH/Ppyb858cknnzqy+8b3+mozU9MPHNz9ydlN4vnPeMtvrPW/7Y1/Wh4+83bvxQf+aIjJ5QG//TaW2b2jsTx1cYRzOYfbPzdXh3mSjQsY/Em/vP5bWa75VSiWbwS5JAqxBZw/6vpyDss/ftLb/cnZoWefe6EOdGprfIVi+fOe510U4RSJ06KFMYNgenehWL47aMx4rbLNtfrBSwdvh9e11939i8/+1Tdexj4H4Rrm+BfPPv/Epe8/21coHbv6zufvmH7gaPHzj33knT//4KWDTYHGeIO4/XNzex745v+5TORggJ1X/P4LH/7z7a1zgsT/i2ef3/O39y9e/t3v/XPruC98ab7nXw782xHY8OEmxfPcelvtmRtu/Mpx4udXfmj7c382+vvNh4ESwLd8HvrzsBdiGeFJ7yUuDtLIOYp7v6hQLO9oLE8dA39s2PCKJwfeXvoV1bP4xS+eP3Z+4ZE2hgeM8jd/8+RnVL8BPPf8C/934O0lX83nhz/88fFA0Dz6t55y5Nhj1/1C9RsYL/83aHzfnH/kVJHZ8oAFsn7DL63qanm6ePa5Fx4H6V91+Ct+6bhjvrrv7zrm4L+csmntV35l489Vv9vcd9JT7H2hWD4UoEHC9ZXPS8AT/J+4vr7tczysr0c8zzsoFJ8LPLcLgDUxuedr0PvDCrMoFMvP+ewnz2O57b9lkrcmLV7QWJ6Sao82UCiWn/bRDmX7B1gt/jtWXg3cP4TnE7RW4Xo/C3tb49e8+9iTTtrwxJ5b7isweof/r7vhy4WfP/Pcs2zf5AH7g0wbkVlsjBjFZ//qGz8bv/6eXxI/91NzLnnfwBXwErkWDG5p6Se3Pf/CkXeMXnbOWfDZ5C33nf6vT6w8BIwkaODYtETGJJRqKE44m/RNWGNePMe6QrH8RGN56jVjV73jzX7PA1RzUdosFl/lqUwjPC75kwHf78971+41kVEUT37lAZlpSYVHfvD4rTyDhuc4cf2FT9x197dfw38OWt4JJxxvVbpk8676HkwjX933dx2mEWASOs+vUCw/rCA8qHK5ubE8tRRm3N5La+Nbiq+hAumWsOdOE0CnJ574co/NPWMWx75s3UGBtoyAG65sL2kAHcnOxdOip95IjweNrrE8pb3mdQE0rmASyvWDTA5eF3svnaMgHAb7x9M8gwtYq2/zM7WZADSHY1+2rsNcv/tT+4758b8+eQRMSMzMDPQ388X5IXGPES02rZvSGQdoEaJWwMBL+X6YuP7Cda/+5fVtdjAY5E277z3T87wnjz32mDu/9dAPO64hGziaG2Rjf0bXVgkLoVAsb0aJUEQBJEpbE5gGPvKxLx2a/Zu/b9N2LvnA2f/+zvNO+5WfPPlU/Qc/eLxN05ja+wBIl3v8NndXgNK+iqlFYhKIGYUQ8lhWmQQAmMTv9p9yae/GV7T8irAGPnr1nZt+/ovnAk0UMiAtyjbc51VMQoGSghZfB4zbwpy2gNqMuMEzaK8fuD+FJgUM7sbG8tRH8G/VWrXGJBhAWP/pT39++m9t+dU2gfuuv/52z+mnveE7xx53zC1ra2vvAk1D/K3fXh7IKFRmIHBq/fezTr3FZGMZveycV3med/+dd33rTJ6TIfO43GDgpykucZfuWLyXmEVdMZFQnz2TjOLTe772o70z32yTYIb+4HeO4PMHab/0+OM/OcQfA/Pxj//42GWTt9x3TxzObcu4QXE6MDVt59o6mmAft0Go2rGOxXlTIOUFHfPqV69/ddjzgxD2e//jt94OAQwnrj/+Idg82He4cYRhFn+o+Pw7JidBWnxM4Q/azmsfFqAKsmiEYEjfUTTggufyEWRKqmu17S9o2jJ6/rIADKTfo15bfFXb3g3z/93v/XPHPquw2LRBySieeupp76yzd62JEUeA3Te+99n3/nH/sSY31LoJMDOteac//uOftC1UceBXXH5Ow2fRqgj5kRBDWlV8bl3dTQKg/f313d/+Nf5S4Dc59dTNt/Kf3XjDH288dOhnL/BaR4ac26r5B8n25gjnZUQntSWbRraYAInYepSYDGwjWXf00Ud4qROYxc9+9nNTf5U0UCIkfqxgFEOWGYVq/fzI4jXYc1HNqexaYaI2lc8FHNFHrzu6DuZFlZ9SZWoSodwQQE1921t/8wHP884UmcWVH/nCy5555tmfvf9P3v4Kw5tqgi3UE15xfJun3kM76jvOOy1IU1E6O7sZ4ON55AePXybaHS+84G3/Lnuep7zxtR989LHGbfz8xuXcJrgHiDw8/viXtdEg+KtAeIL57+09ocMpS8gWwHrwwvMvXDL7N39/m7iPv2P7m5//i1vepzXHvpIjk/7/22//52+J4VPXXnf3L/3tA4tHzvzd/+czYe3aTz/9i2VRggAGpXG+HylsjGEkD5V04UTfWxP85Cer35LltIBp76bd92q3MozDuW0Ziwp135aj+bBMsovTbxUljyIKIFrm1a86sc1EwZjFL7/6xG96nvfagNOr5uLXQwwrKVpUjVl1fT+c7HMND8eudS0//2qhWA7dihQiS785/8ht4uc/+4+fP6d7jsDMbJD+wRH98esvXAKTEA+IXJrc87XLIafCePTRoFKTtqKjUwtoP1SZGWyqurED5kAWCx0W4NwGM5ajt/sxxecljFiKikXF76fjuZ10ASYKSITlBwHMoueoHh1TmGouCoa0eL4qMkiDFk3NNTtU50HnvBZwramYdnOP8hn7BsyryAS0bdHg6HjqqWc6fAtg+wKJ9ZFHHj9SOrVPmhdhG2ArLhTLE4pJgoSdwGSdQrG8z8d+mCltQpZUx0JhV1f/43/rnOMfvv/oH/D+Cped2yDVwxwrEqUO6sx/wPn7C8XyEUnk0+swFPQ3bEbhuAAwNb3iFcc9wUfDfPRjd+o8q4d8AkJ0adEv6W1K+Pt7Mgkdo48qOgIeOs5nFfR/VaFYfrXGmIGhXKX4ui74s1RrFfIufs/zvDe7vp6MnJYvedNf3ZHuDSaPbz/0w9uOOvqoa8KE2ZkCYqt9klhgAi7COOV/4xxHoA6fFJAZCQk2WmnvLkCVVMdCYXWH+Mwzz14i+itcdm4DIReK5Z8oiJXNvwnaSng0lqeOUiRkHY/MyOTckUtMJAGg2+OOPaajmkIQwNznk8GuokUwvazXoMW2DRtCTgvF8hskmzys0ZsLxbJOMENzPhTlQDxh/YAZkmmYuvtHvzBmv7VaCLGeEkeoooAQZnnt1effAnZVHiwT8M+u3HsEHKtx3wwS37sxq1GGHpyIrfgq+EwyhFb2iZPsOsSkOsBFw2e+wEJhdQGa4DvOO21RNC+COWv3p2ZVkWGpAjaNxvJUT1waICZN9eFm0RUAy8HoFb/fsQ40ntXrkRZVtnSRFjf40OJhP1pEQa4PaTY08PxB8wvjjLx/cGv1Dp9n5CyakmJv7wnfec+F7Yw1KOKBZd5CzP4TT6x02Maf+fmzf33rbbWb/ExRYa4rgsuWZDbDqz3P+70Azg+MBVS9+SgmChvjV+G33/T6x1/3qye1OZvgevzfN+6+d+aEE44/wI8Brn/8cS/7ozDXBOf1ysrP/u7w4Z+1MZmf/GS1qbnYNCs+88yz33jPhVv/i/i5WIZEB7wGyK0B0/Dm78s+RJNASxtAW/olhud+lP/j1/7zf/o/v/zq9W3PWHfd6K451fP9vz956inxMxEYxLDnX/6l8XuS6yvHKaFF0NDerEGLMOf/04QWcV747OcbffKrRLTmQzK/YAaDzX6TjybNtKO/A7nZxGyE98gyu8OuVWPI9hMTWutZW8sccyMQCARCUvA87/8HYM9U5RdUMCUAAAAASUVORK5CYII=;fontFamily=Open Sans;fontSource=https%3A%2F%2Ffonts.googleapis.com%2Fcss%3Ffamily%3DOpen%2BSans;" parent="H106TfcsuPJsD2gUWJnb-1" vertex="1">
          <mxGeometry x="14.11764705882353" y="6.439169139465875" width="14.934543550357828" height="15.694257287484728" as="geometry" />
        </mxCell>
        <mxCell id="td5HqRbBto4OU2lN0zia-14" value="" style="strokeColor=#dddddd;shadow=1;strokeWidth=1;rounded=1;absoluteArcSize=1;arcSize=2;" vertex="1" parent="H106TfcsuPJsD2gUWJnb-1">
          <mxGeometry x="55" y="60" width="160" height="60" as="geometry" />
        </mxCell>
        <mxCell id="td5HqRbBto4OU2lN0zia-15" value="&lt;font color=&quot;#000000&quot;&gt;OCP Console&lt;/font&gt;&lt;br&gt;Application Portal" style="dashed=0;connectable=0;html=1;fillColor=#5184F3;strokeColor=none;shape=mxgraph.gcp2.hexIcon;prIcon=developer_portal;part=1;labelPosition=right;verticalLabelPosition=middle;align=left;verticalAlign=middle;spacingLeft=5;fontColor=#999999;fontSize=12;" vertex="1" parent="td5HqRbBto4OU2lN0zia-14">
          <mxGeometry y="0.5" width="44" height="39" relative="1" as="geometry">
            <mxPoint x="5" y="-19.5" as="offset" />
          </mxGeometry>
        </mxCell>
        <mxCell id="td5HqRbBto4OU2lN0zia-16" value="" style="strokeColor=#dddddd;shadow=1;strokeWidth=1;rounded=1;absoluteArcSize=1;arcSize=2;" vertex="1" parent="H106TfcsuPJsD2gUWJnb-1">
          <mxGeometry x="275" y="60" width="120" height="60" as="geometry" />
        </mxCell>
        <mxCell id="td5HqRbBto4OU2lN0zia-17" value="&lt;font color=&quot;#000000&quot;&gt;Poseidon&lt;/font&gt;&lt;br&gt;OCP SDK" style="dashed=0;connectable=0;html=1;fillColor=#5184F3;strokeColor=none;shape=mxgraph.gcp2.hexIcon;prIcon=placeholder;part=1;labelPosition=right;verticalLabelPosition=middle;align=left;verticalAlign=middle;spacingLeft=5;fontColor=#999999;fontSize=12;" vertex="1" parent="td5HqRbBto4OU2lN0zia-16">
          <mxGeometry y="0.5" width="44" height="39" relative="1" as="geometry">
            <mxPoint x="5" y="-19.5" as="offset" />
          </mxGeometry>
        </mxCell>
        <mxCell id="td5HqRbBto4OU2lN0zia-1" value="&lt;b&gt;On-Permises&lt;br&gt;App / Queue ...&lt;/b&gt;" style="points=[[0,0,0],[0.25,0,0],[0.5,0,0],[0.75,0,0],[1,0,0],[1,0.25,0],[1,0.5,0],[1,0.75,0],[1,1,0],[0.75,1,0],[0.5,1,0],[0.25,1,0],[0,1,0],[0,0.75,0],[0,0.5,0],[0,0.25,0]];rounded=1;absoluteArcSize=1;arcSize=2;html=1;strokeColor=none;gradientColor=none;shadow=0;dashed=0;fontSize=12;fontColor=#9E9E9E;align=left;verticalAlign=top;spacing=10;spacingTop=-4;fillColor=#EFEBE9;fontFamily=Open Sans;fontSource=https%3A%2F%2Ffonts.googleapis.com%2Fcss%3Ffamily%3DOpen%2BSans;" vertex="1" parent="1">
          <mxGeometry x="120" y="200" width="120" height="540" as="geometry" />
        </mxCell>
        <mxCell id="td5HqRbBto4OU2lN0zia-2" value="Application" style="strokeColor=#dddddd;shadow=1;strokeWidth=1;rounded=1;absoluteArcSize=1;arcSize=2;labelPosition=center;verticalLabelPosition=middle;align=center;verticalAlign=bottom;spacingLeft=0;fontColor=#999999;fontSize=12;whiteSpace=wrap;spacingBottom=2;fontFamily=Open Sans;fontSource=https%3A%2F%2Ffonts.googleapis.com%2Fcss%3Ffamily%3DOpen%2BSans;" vertex="1" parent="1">
          <mxGeometry x="145" y="258" width="70" height="85" as="geometry" />
        </mxCell>
        <mxCell id="td5HqRbBto4OU2lN0zia-3" value="" style="dashed=0;connectable=0;html=1;fillColor=#757575;strokeColor=none;shape=mxgraph.gcp2.application;part=1;fontFamily=Open Sans;fontSource=https%3A%2F%2Ffonts.googleapis.com%2Fcss%3Ffamily%3DOpen%2BSans;" vertex="1" parent="td5HqRbBto4OU2lN0zia-2">
          <mxGeometry x="0.5" width="50" height="40" relative="1" as="geometry">
            <mxPoint x="-25" y="15" as="offset" />
          </mxGeometry>
        </mxCell>
        <mxCell id="td5HqRbBto4OU2lN0zia-4" value="Modbus&#xa;MQTT" style="strokeColor=#dddddd;shadow=1;strokeWidth=1;rounded=1;absoluteArcSize=1;arcSize=2;labelPosition=center;verticalLabelPosition=middle;align=center;verticalAlign=bottom;spacingLeft=0;fontColor=#999999;fontSize=12;whiteSpace=wrap;spacingBottom=2;fontFamily=Open Sans;fontSource=https%3A%2F%2Ffonts.googleapis.com%2Fcss%3Ffamily%3DOpen%2BSans;" vertex="1" parent="1">
          <mxGeometry x="145" y="370" width="70" height="100" as="geometry" />
        </mxCell>
        <mxCell id="td5HqRbBto4OU2lN0zia-5" value="" style="dashed=0;connectable=0;html=1;fillColor=#757575;strokeColor=none;shape=mxgraph.gcp2.circuit_board;part=1;fontFamily=Open Sans;fontSource=https%3A%2F%2Ffonts.googleapis.com%2Fcss%3Ffamily%3DOpen%2BSans;" vertex="1" parent="td5HqRbBto4OU2lN0zia-4">
          <mxGeometry x="0.5" width="50" height="45" relative="1" as="geometry">
            <mxPoint x="-25" y="12.5" as="offset" />
          </mxGeometry>
        </mxCell>
        <mxCell id="td5HqRbBto4OU2lN0zia-6" value="Database" style="strokeColor=#dddddd;shadow=1;strokeWidth=1;rounded=1;absoluteArcSize=1;arcSize=2;labelPosition=center;verticalLabelPosition=middle;align=center;verticalAlign=bottom;spacingLeft=0;fontColor=#999999;fontSize=12;whiteSpace=wrap;spacingBottom=2;fontFamily=Open Sans;fontSource=https%3A%2F%2Ffonts.googleapis.com%2Fcss%3Ffamily%3DOpen%2BSans;" vertex="1" parent="1">
          <mxGeometry x="145" y="490" width="70" height="85" as="geometry" />
        </mxCell>
        <mxCell id="td5HqRbBto4OU2lN0zia-7" value="" style="dashed=0;connectable=0;html=1;fillColor=#757575;strokeColor=none;shape=mxgraph.gcp2.database;part=1;fontFamily=Open Sans;fontSource=https%3A%2F%2Ffonts.googleapis.com%2Fcss%3Ffamily%3DOpen%2BSans;" vertex="1" parent="td5HqRbBto4OU2lN0zia-6">
          <mxGeometry x="0.5" width="50" height="45" relative="1" as="geometry">
            <mxPoint x="-25" y="12.5" as="offset" />
          </mxGeometry>
        </mxCell>
        <mxCell id="td5HqRbBto4OU2lN0zia-8" value="Storage" style="strokeColor=#dddddd;shadow=1;strokeWidth=1;rounded=1;absoluteArcSize=1;arcSize=2;labelPosition=center;verticalLabelPosition=middle;align=center;verticalAlign=bottom;spacingLeft=0;fontColor=#999999;fontSize=12;whiteSpace=wrap;spacingBottom=2;fontFamily=Open Sans;fontSource=https%3A%2F%2Ffonts.googleapis.com%2Fcss%3Ffamily%3DOpen%2BSans;" vertex="1" parent="1">
          <mxGeometry x="145" y="600" width="70" height="85" as="geometry" />
        </mxCell>
        <mxCell id="td5HqRbBto4OU2lN0zia-9" value="" style="dashed=0;connectable=0;html=1;fillColor=#757575;strokeColor=none;shape=mxgraph.gcp2.storage;part=1;fontFamily=Open Sans;fontSource=https%3A%2F%2Ffonts.googleapis.com%2Fcss%3Ffamily%3DOpen%2BSans;" vertex="1" parent="td5HqRbBto4OU2lN0zia-8">
          <mxGeometry x="0.5" width="50" height="40" relative="1" as="geometry">
            <mxPoint x="-25" y="15" as="offset" />
          </mxGeometry>
        </mxCell>
      </root>
    </mxGraphModel>
  </diagram>
</mxfile>
